<?xml version="1.0" standalone="no"?>
<!DOCTYPE svg PUBLIC "-//W3C//DTD SVG 20010904//EN"
 "http://www.w3.org/TR/2001/REC-SVG-20010904/DTD/svg10.dtd">
<svg version="1.0" xmlns="http://www.w3.org/2000/svg"
 width="768.000000pt" height="767.000000pt" viewBox="0 0 768.000000 767.000000"
 preserveAspectRatio="xMidYMid meet">

<g transform="translate(0.000000,767.000000) scale(0.100000,-0.100000)"
fill="#000000" stroke="none">
<path d="M156 7372 c-12 -21 140 -338 217 -452 95 -142 270 -310 566 -545 196
-156 331 -276 324 -289 -4 -6 -34 -47 -68 -91 -281 -370 -504 -859 -593 -1300
-46 -227 -70 -470 -70 -720 0 -431 93 -880 264 -1278 35 -83 63 -151 62 -152
-66 -46 -373 -287 -629 -491 -177 -142 -206 -177 -216 -262 -9 -77 4 -97 197
-302 137 -146 263 -289 365 -415 41 -49 115 -141 166 -204 102 -126 135 -148
194 -132 78 21 165 113 165 172 0 13 -16 49 -35 79 -30 46 -35 63 -35 113 0
93 20 200 40 214 19 13 18 13 81 188 23 66 52 143 65 170 12 28 29 67 37 87
17 41 28 46 47 22 26 -30 48 -35 80 -19 46 24 63 57 58 115 -1 27 -1 50 2 50
3 0 32 -28 65 -63 33 -34 79 -79 103 -100 l43 -38 -34 -62 c-154 -280 -239
-447 -234 -460 5 -13 24 -27 177 -124 317 -202 558 -320 895 -441 291 -104
686 -190 965 -209 149 -10 527 -10 655 0 619 50 1260 275 1850 649 180 115
185 118 185 123 0 3 -25 54 -55 113 -50 98 -89 171 -180 338 l-33 61 104 109
104 109 -6 -41 c-8 -54 16 -106 61 -130 l33 -18 37 28 c20 15 38 26 40 25 9
-10 89 -207 125 -309 48 -136 59 -160 84 -180 15 -14 19 -35 23 -145 l5 -130
-36 -55 c-20 -30 -36 -59 -36 -65 1 -26 41 -94 71 -119 93 -79 171 -80 231 -3
190 244 399 490 612 716 121 130 172 196 179 238 8 39 -15 121 -44 157 -26 33
-573 472 -772 620 -26 19 -35 31 -29 39 21 25 112 250 156 381 82 248 132 484
157 750 22 239 -6 845 -41 880 -6 6 -10 19 -10 31 0 53 -88 367 -146 524 -119
319 -276 613 -459 858 l-79 106 29 24 c73 56 456 341 637 474 216 158 512 400
529 432 6 11 9 32 6 47 -13 63 -138 300 -159 300 -38 0 -281 -187 -663 -510
-114 -96 -251 -208 -304 -249 -53 -41 -140 -112 -194 -158 l-98 -85 -87 80
c-48 44 -100 94 -117 112 -41 44 -221 184 -330 257 -415 278 -907 459 -1380
508 -164 17 -462 19 -625 5 -352 -32 -740 -145 -1069 -310 -291 -146 -568
-341 -779 -549 -62 -61 -117 -111 -122 -111 -20 0 -261 244 -413 418 -88 101
-185 202 -216 226 -144 109 -449 286 -592 341 -99 39 -96 38 -103 27z m3940
-122 c375 -47 660 -133 991 -301 284 -144 498 -296 712 -504 l123 -121 -57
-48 -57 -49 -105 106 c-220 223 -545 438 -841 557 -121 48 -263 100 -276 100
-6 0 26 -25 70 -55 110 -75 255 -198 339 -286 85 -90 199 -255 255 -370 27
-55 61 -105 98 -143 l57 -60 -62 53 c-34 29 -65 52 -68 51 -10 -1 -80 92 -144
195 -180 287 -348 464 -541 573 -19 10 -58 33 -85 49 -222 132 -667 203 -985
158 -329 -47 -491 -109 -740 -286 -154 -109 -264 -236 -415 -479 -70 -114
-153 -220 -172 -220 -7 0 -13 -4 -13 -8 0 -5 -19 -21 -42 -36 l-43 -27 55 58
c37 38 72 91 103 153 53 106 146 242 231 334 80 88 269 244 382 316 26 16 43
30 38 30 -23 0 -243 -82 -386 -144 -20 -9 -88 -43 -150 -77 -213 -116 -420
-271 -609 -456 l-115 -113 -55 50 -54 50 130 127 c446 437 1059 737 1675 817
172 23 169 23 391 24 153 2 246 -3 365 -18z m-3719 -44 c39 -25 100 -59 135
-77 86 -43 243 -140 300 -186 46 -37 348 -377 348 -392 0 -4 -13 -20 -30 -36
l-30 -28 -57 55 c-32 30 -164 160 -293 289 -162 161 -256 248 -302 276 -38 23
-68 40 -68 38 0 -2 23 -26 51 -52 64 -60 311 -329 322 -352 5 -9 -20 13 -54
49 -35 36 -60 57 -56 47 5 -13 -2 -23 -24 -36 l-30 -19 72 -63 c111 -98 151
-137 84 -83 -227 184 -372 372 -456 592 -13 33 6 28 88 -22z m6823 33 c0 -5 4
-8 9 -5 5 3 15 -2 22 -12 12 -15 12 -16 -1 -5 -13 10 -29 1 -92 -50 -42 -34
-75 -64 -73 -66 3 -2 19 8 37 23 87 69 98 74 43 20 -33 -33 -73 -67 -89 -78
-21 -13 -25 -21 -17 -29 9 -9 16 -8 29 1 9 6 31 19 47 27 29 16 29 15 -5 -15
-61 -54 -63 -54 -98 -5 l-31 44 102 81 c102 80 117 89 117 69z m-3210 -174
c133 -23 203 -43 319 -89 337 -136 609 -376 754 -667 60 -120 53 -143 -8 -29
-167 309 -422 537 -728 652 -218 81 -332 100 -592 100 -272 -1 -418 -30 -652
-131 -269 -116 -539 -379 -669 -654 -20 -43 -38 -76 -40 -75 -7 8 38 124 72
180 190 326 461 538 849 667 33 10 87 24 120 30 33 6 80 15 105 20 76 15 376
12 470 -4z m2996 -57 c40 -72 41 -78 8 -40 l-29 34 -24 -26 c-14 -14 -30 -26
-38 -26 -19 0 -16 -9 13 -47 14 -18 23 -33 20 -33 -3 0 -26 26 -50 57 l-45 57
51 38 c29 21 55 38 58 38 4 0 20 -24 36 -52z m294 18 c0 -2 -24 -23 -52 -46
l-53 -42 50 46 c49 45 55 50 55 42z m-3330 -21 c69 -8 165 -26 214 -40 97 -28
283 -102 292 -116 3 -5 -17 1 -43 12 -93 41 -249 90 -348 111 -157 32 -423 36
-590 9 -126 -21 -327 -81 -408 -123 -22 -11 -41 -18 -43 -16 -7 8 133 71 228
102 206 69 451 90 698 61z m73 -84 c79 -14 127 -28 144 -41 14 -11 33 -20 42
-20 17 0 37 -11 92 -49 19 -13 25 -20 14 -16 -11 4 -36 14 -56 21 -36 13 -193
46 -279 59 -33 4 -41 3 -30 -4 8 -6 22 -11 31 -11 69 0 333 -105 307 -121 -8
-5 -21 0 -33 11 -22 21 -40 27 -30 10 8 -14 1 -13 -42 5 -20 8 -37 14 -39 12
-2 -1 21 -21 50 -44 39 -31 62 -60 89 -115 44 -85 72 -218 63 -292 -13 -116
-68 -126 -167 -29 -75 73 -91 79 -42 15 102 -132 108 -141 61 -87 -76 88 -443
455 -455 455 -13 0 -396 -387 -451 -455 -21 -27 -52 -61 -68 -75 -22 -19 -20
-15 7 15 59 66 151 186 146 191 -2 3 -33 -23 -67 -57 -49 -48 -70 -62 -100
-66 -35 -5 -40 -3 -54 25 -20 39 -21 134 -1 227 22 104 66 186 130 242 30 26
53 49 50 51 -2 3 -11 -1 -19 -8 -9 -6 -31 -12 -51 -13 -19 -1 -35 -5 -35 -10
0 -4 -4 -6 -9 -3 -5 4 -11 1 -13 -6 -3 -9 -6 -9 -12 0 -5 9 16 24 69 48 67 31
112 45 260 79 17 4 24 10 18 12 -17 6 -261 -43 -331 -67 -31 -10 -49 -14 -39
-7 10 7 28 20 40 30 11 10 32 20 46 24 14 3 40 14 58 25 27 16 153 43 283 61
74 10 309 -2 423 -22z m2824 -35 l24 -29 -33 -21 c-18 -11 -36 -25 -40 -31 -5
-6 -8 -6 -8 2 0 7 14 20 31 28 30 16 35 40 8 40 -8 1 -31 -10 -51 -23 -33 -22
-36 -26 -27 -50 6 -15 15 -33 21 -42 6 -8 -11 7 -37 35 l-47 50 58 52 c51 45
60 49 68 35 5 -9 20 -30 33 -46z m268 -2 c-48 -40 -74 -49 -30 -10 22 19 45
35 50 35 6 0 -3 -11 -20 -25z m-443 -96 c17 -26 9 -38 -45 -73 -26 -17 -27
-19 -11 -36 10 -11 15 -21 13 -24 -3 -2 -20 15 -38 38 l-32 42 40 38 c47 43
54 45 73 15z m46 -58 c7 -11 11 -20 9 -20 -2 0 -12 9 -22 20 -10 11 -14 20 -9
20 5 0 15 -9 22 -20z m-2368 -16 c0 -2 -9 0 -20 6 -11 6 -20 13 -20 16 0 2 9
0 20 -6 11 -6 20 -13 20 -16z m-1180 -28 c0 -2 -8 -10 -17 -17 -16 -13 -17
-12 -4 4 13 16 21 21 21 13z m1180 -22 c0 -2 -9 0 -20 6 -11 6 -20 13 -20 16
0 2 9 0 20 -6 11 -6 20 -13 20 -16z m2204 0 c10 -15 15 -29 10 -33 -26 -17
-248 -187 -314 -238 -41 -32 -108 -80 -147 -106 -40 -27 -79 -58 -87 -69 -8
-11 -23 -26 -34 -32 -25 -15 -136 -101 -187 -147 -52 -47 -131 -99 -139 -94
-3 3 -4 2 -1 -2 6 -8 -14 -33 -27 -33 -5 0 -6 5 -2 11 3 6 -5 3 -20 -6 -15
-10 -24 -20 -22 -23 3 -3 14 1 23 9 16 12 16 11 -1 -8 -14 -17 -21 -19 -31
-10 -9 8 -10 16 -3 24 6 7 8 22 5 33 -4 18 16 36 116 110 157 115 346 259 505
385 255 200 326 255 332 255 3 0 13 -12 24 -26z m-5657 -139 c0 -9 -13 -4 -39
17 -21 17 -36 33 -33 36 3 3 -14 26 -37 51 -28 29 -17 21 33 -22 42 -37 76
-74 76 -82z m1923 131 c0 -2 -8 -10 -17 -17 -16 -13 -17 -12 -4 4 13 16 21 21
21 13z m2021 -149 c90 -104 117 -142 177 -258 59 -112 77 -162 64 -184 -6 -12
-15 1 -36 54 -15 39 -24 76 -20 82 4 7 3 9 -4 6 -6 -4 -28 25 -52 70 -53 98
-132 203 -224 301 -70 74 -70 75 -24 44 26 -18 80 -70 119 -115z m-2097 80
c-148 -164 -210 -256 -290 -434 -22 -51 -44 -90 -47 -87 -3 3 -3 -3 0 -14 2
-11 -1 -23 -8 -27 -29 -18 2 93 55 200 66 132 115 201 225 318 84 87 137 124
65 44z m3825 -3 c-21 -23 -337 -275 -412 -329 -15 -11 -90 -68 -167 -128 -77
-59 -140 -105 -140 -103 0 6 295 242 505 404 94 72 184 142 200 156 39 33 45
33 14 0z m111 1 c14 -19 14 -19 -2 -6 -10 7 -18 18 -18 24 0 6 1 8 3 6 1 -2 9
-13 17 -24z m-2745 -185 c77 -74 143 -143 146 -155 3 -11 2 -94 -2 -185 -17
-336 -20 -512 -8 -526 10 -12 -42 -14 -322 -14 l-334 0 0 324 c0 178 -3 319
-7 312 -4 -6 -8 14 -8 45 l0 57 67 63 c37 35 114 108 171 163 l103 99 27 -24
c15 -13 90 -85 167 -159z m2675 133 c-1 -19 -151 -135 -179 -140 -9 -1 -24
-12 -35 -25 -10 -13 -23 -22 -28 -20 -5 1 -11 -5 -14 -13 -4 -8 -13 -15 -21
-15 -8 0 -11 -5 -7 -12 4 -7 4 -10 -1 -6 -5 5 -15 -1 -22 -12 -8 -11 -19 -18
-24 -14 -5 3 -8 1 -7 -4 5 -17 -610 -495 -624 -486 -5 4 1 13 14 22 13 9 46
34 73 57 28 22 111 87 185 145 73 58 178 141 233 185 95 76 449 352 455 354 1
1 2 -7 2 -16z m-5674 -39 c1 -9 -1 -13 -4 -9 -4 4 -7 10 -7 13 0 4 -4 14 -9
22 -7 12 -6 13 4 3 8 -7 15 -20 16 -29z m268 -69 c-20 -24 -41 -43 -47 -42 -7
1 -11 -5 -11 -14 1 -9 -4 -16 -10 -16 -6 0 -20 -4 -30 -8 -12 -5 3 21 39 68
50 67 60 75 76 66 18 -9 17 -12 -17 -54z m143 -67 c38 -35 136 -121 218 -193
308 -268 315 -275 295 -300 -10 -12 -25 -4 -88 53 -42 37 -91 84 -110 104 -18
21 -39 36 -45 35 -7 -1 -11 3 -10 9 1 6 -10 22 -25 35 -21 19 -24 20 -13 4 8
-11 -5 0 -29 25 -24 25 -37 36 -29 25 12 -18 -8 -2 -71 55 -9 8 -35 31 -58 51
-23 20 -38 40 -34 44 4 5 2 5 -4 2 -6 -4 -22 8 -35 25 -13 17 -32 39 -43 49
-17 16 -15 39 4 39 5 0 39 -28 77 -62z m-33 -75 c45 -43 177 -163 294 -267
116 -104 212 -193 212 -198 0 -15 -33 9 -105 76 -38 37 -71 66 -73 66 -2 0
-45 37 -95 83 -50 45 -97 87 -103 92 -205 183 -246 225 -217 225 3 0 42 -35
87 -77z m170 -238 c93 -83 198 -174 233 -204 35 -30 61 -56 58 -59 -3 -3 -15
4 -28 15 -12 11 -119 102 -237 203 -251 213 -342 298 -334 312 3 5 36 -19 73
-54 36 -35 142 -131 235 -213z m3173 187 c-10 -10 -14 -22 -10 -26 5 -4 1 -6
-7 -4 -8 2 -14 -2 -13 -8 1 -6 -14 -26 -32 -44 -19 -19 -35 -30 -35 -26 0 4
-21 -10 -47 -31 -27 -21 -3 6 52 59 93 90 131 123 92 80z m323 -53 c12 -22 20
-44 18 -49 -2 -4 -13 14 -25 41 -26 59 -21 65 7 8z m-2466 -6 c-16 -37 -34
-64 -34 -50 0 11 39 87 45 87 2 0 -3 -17 -11 -37z m396 -18 c17 -23 23 -48 9
-39 -5 3 -7 9 -4 14 3 5 -8 19 -25 31 -16 13 -30 27 -30 32 0 12 30 -11 50
-38z m386 -72 c-83 -100 -163 -176 -176 -168 -23 14 -8 -13 25 -45 19 -18 33
-36 30 -38 -5 -6 -75 68 -75 79 0 4 57 69 128 143 136 145 181 164 68 29z
m964 -30 c114 -122 161 -181 117 -144 -10 7 -17 10 -17 5 0 -11 -68 56 -161
158 -69 77 -96 120 -71 117 4 0 63 -61 132 -136z m20 85 c0 -6 -7 -5 -15 2 -8
7 -15 17 -15 22 0 6 7 5 15 -2 8 -7 15 -17 15 -22z m-1919 -9 c-5 -13 -10 -19
-10 -12 -1 15 10 45 15 40 3 -2 0 -15 -5 -28z m615 -31 l29 -33 -32 29 c-31
28 -38 36 -30 36 2 0 16 -15 33 -32z m-635 -29 c-5 -13 -10 -19 -10 -12 -1 15
10 45 15 40 3 -2 0 -15 -5 -28z m1032 -194 c3 -115 3 -193 0 -172 -4 32 -7 36
-19 26 -12 -10 -13 -9 -8 6 5 13 4 16 -4 11 -7 -4 -12 -3 -12 3 0 5 -12 22
-26 38 -24 26 -24 28 -7 40 10 7 24 17 31 23 13 12 16 68 4 86 -14 21 -57 44
-82 44 -21 0 -19 3 18 21 24 12 55 37 69 56 14 18 27 32 28 31 2 -2 5 -97 8
-213z m852 124 l40 -19 -33 0 c-48 0 -82 -38 -82 -90 0 -34 5 -43 29 -58 l30
-18 -35 -37 c-20 -20 -33 -41 -29 -46 3 -5 1 -12 -5 -16 -6 -4 -11 6 -12 22
-1 19 -3 14 -8 -17 -9 -58 -12 223 -4 307 l7 61 31 -36 c17 -19 49 -43 71 -53z
m922 69 c-3 -8 -6 -5 -6 6 -1 11 2 17 5 13 3 -3 4 -12 1 -19z m-113 -14 c3 -8
2 -12 -4 -9 -6 3 -10 10 -10 16 0 14 7 11 14 -7z m62 -20 c-4 -9 -9 -15 -11
-12 -3 3 -3 13 1 22 4 9 9 15 11 12 3 -3 3 -13 -1 -22z m-3707 -38 l49 -43
-58 -76 c-313 -406 -534 -942 -600 -1457 -74 -576 0 -1164 201 -1604 32 -72
58 -130 56 -131 -1 -1 -28 -21 -60 -44 -32 -24 -60 -41 -62 -39 -2 2 -18 35
-35 73 -108 237 -195 537 -246 845 -58 354 -34 873 60 1270 19 79 104 331 154
455 59 147 188 391 281 530 96 144 188 265 202 265 4 0 30 -20 58 -44z m4841
-53 c290 -393 492 -858 606 -1393 24 -117 45 -366 45 -562 1 -370 -48 -667
-173 -1048 -38 -116 -120 -316 -136 -332 -8 -8 -122 68 -122 82 0 4 20 50 44
101 117 252 186 522 226 880 24 214 7 654 -34 869 -51 269 -153 569 -285 836
-92 188 -162 306 -278 468 -47 65 -81 122 -76 127 22 22 89 68 100 69 6 0 43
-43 83 -97z m-1188 65 c-7 -7 -12 -8 -12 -2 0 14 12 26 19 19 2 -3 -1 -11 -7
-17z m-2709 -43 c36 -30 69 -68 75 -84 11 -30 6 -240 -6 -272 -4 -10 -7 35 -7
99 0 64 -4 129 -8 144 -7 28 -59 83 -114 121 -34 23 -43 47 -19 47 8 0 44 -25
79 -55z m2915 46 c-1 -5 -34 -36 -73 -68 -38 -32 -72 -69 -76 -83 -4 -14 -8
-79 -9 -145 -3 -150 -17 -109 -19 54 l-1 113 69 69 c43 43 77 69 91 69 12 0
20 -4 18 -9z m592 5 c0 -2 -8 -10 -17 -17 -16 -13 -17 -12 -4 4 13 16 21 21
21 13z m-373 -53 c-11 -10 -26 8 -20 23 5 15 7 14 15 -1 6 -9 7 -19 5 -22z
m-3424 10 c-3 -7 -9 -13 -14 -13 -5 0 -9 6 -9 13 0 8 6 14 14 14 8 0 12 -6 9
-14z m200 -22 c97 -72 100 -78 92 -173 -11 -135 -25 -201 -52 -243 -15 -22
-28 -34 -30 -28 -2 6 5 21 15 31 13 13 24 45 31 93 6 41 17 100 23 132 9 49 9
60 -6 75 -9 10 -16 23 -16 28 0 12 -78 78 -103 87 -24 9 -53 -7 -60 -33 -4
-17 -2 -20 11 -16 16 6 16 5 0 -7 -14 -11 -16 -32 -15 -149 2 -127 4 -138 25
-161 19 -20 20 -25 8 -30 -10 -4 -13 -1 -9 9 3 9 0 14 -8 12 -7 -2 -19 14 -27
37 -18 50 -10 301 10 337 28 49 44 49 111 -1z m3100 16 c32 -49 46 -274 22
-348 -10 -28 -20 -48 -23 -45 -8 8 -43 -25 -37 -35 3 -4 1 -10 -4 -13 -17 -11
-5 26 16 48 34 36 44 86 39 198 -3 56 -5 117 -5 134 -1 41 -34 57 -79 38 -18
-7 -32 -17 -32 -21 0 -5 -14 -17 -30 -27 -17 -9 -28 -22 -24 -27 3 -6 -2 -19
-11 -30 -19 -20 -20 -6 20 -256 5 -32 15 -44 27 -37 7 4 8 2 4 -4 -4 -7 -2
-12 3 -12 6 0 11 -4 11 -10 0 -21 -21 -8 -44 28 -19 28 -27 61 -36 132 -6 52
-13 114 -16 136 -7 47 9 69 99 137 56 43 79 46 100 14z m-2065 -23 c16 -11 22
-24 20 -42 -2 -22 -9 -28 -34 -30 -38 -4 -68 23 -38 35 10 4 19 2 22 -5 6 -19
22 -14 22 7 0 14 -6 17 -27 13 -16 -2 -33 -9 -39 -14 -8 -5 -14 -2 -18 9 -4
10 -4 14 0 11 4 -4 18 2 32 12 30 24 32 24 60 4z m990 -1 c15 -9 29 -18 31
-19 1 -2 0 -8 -4 -14 -4 -7 -11 -8 -18 -2 -7 5 -24 12 -39 16 -21 5 -28 3 -28
-8 0 -8 5 -18 10 -21 6 -3 10 -1 10 4 0 14 27 14 36 0 16 -27 -55 -40 -76 -14
-10 12 -10 21 -1 41 6 14 16 22 21 19 6 -3 10 -1 10 4 0 16 17 13 48 -6z
m-2034 -34 c14 -11 26 -25 26 -31 0 -7 -10 -2 -23 10 -13 12 -28 22 -35 22 -6
0 -14 5 -17 10 -11 18 22 11 49 -11z m3061 9 c-11 -6 -30 -20 -42 -30 -12 -11
-26 -17 -31 -14 -6 3 -13 1 -15 -4 -3 -6 -4 -5 -2 2 1 7 7 12 12 11 6 -1 21 9
33 22 13 14 33 25 44 25 21 -1 21 -1 1 -12z m-2842 -71 c4 -10 7 -75 8 -145 1
-119 -13 -216 -32 -227 -4 -3 -3 9 2 27 27 90 18 365 -12 384 -5 3 -9 13 -9
22 0 17 29 -24 43 -61z m2610 32 c-15 -29 -18 -62 -18 -208 0 -148 -2 -168
-12 -135 -15 50 -16 247 -2 298 11 40 38 90 45 83 2 -2 -4 -19 -13 -38z m632
21 c-7 -12 -81 -60 -92 -60 -3 0 16 16 43 35 53 38 59 41 49 25z m-3405 -31
c0 -6 -4 -7 -10 -4 -5 3 -10 11 -10 16 0 6 5 7 10 4 6 -3 10 -11 10 -16z
m2080 18 c0 -2 -19 -21 -42 -42 -39 -38 -40 -39 -19 -8 21 31 61 64 61 50z
m-2118 -81 c3 -13 2 -43 -2 -67 l-7 -44 -3 55 c-1 30 -2 58 -1 63 0 4 -3 7 -9
7 -5 0 -10 -6 -11 -12 -1 -7 -4 -2 -8 12 -5 14 -6 29 -3 33 7 13 39 -22 44
-47z m3017 12 c-1 -36 -2 -39 -9 -18 l-7 25 -8 -28 c-4 -15 -5 -41 -3 -57 3
-17 1 -30 -4 -30 -15 0 -8 92 9 121 10 16 19 29 20 29 2 0 3 -19 2 -42z
m-3290 17 c16 -8 31 -24 34 -37 9 -32 -1 -36 -12 -4 -8 19 -18 26 -37 26 -30
0 -84 -35 -84 -55 0 -8 -11 -22 -25 -31 -14 -9 -33 -29 -41 -43 l-15 -26 7 25
c13 49 107 158 137 160 4 0 21 -7 36 -15z m3566 -15 c10 -11 16 -20 13 -20 -3
0 -13 9 -23 20 -10 11 -16 20 -13 20 3 0 13 -9 23 -20z m-63 -27 c-3 -16 -7
-22 -10 -15 -4 13 4 42 11 42 2 0 2 -12 -1 -27z m-2232 -45 c0 -9 -27 17 -50
47 -8 11 0 7 18 -9 18 -17 32 -33 32 -38z m1040 49 c0 -2 -15 -16 -32 -33 -27
-24 -29 -25 -13 -4 24 30 45 47 45 37z m-2060 -59 c0 -35 -12 -30 -17 7 -2 14
1 25 7 25 5 0 10 -14 10 -32z m3040 0 c0 -36 -4 -35 -14 5 -4 16 -2 27 4 27 5
0 10 -14 10 -32z m342 5 c27 -32 29 -52 5 -64 -20 -11 -21 -11 -8 5 12 14 12
19 -1 34 -23 26 -30 42 -20 42 5 0 16 -8 24 -17z m-47 -53 c10 -11 16 -20 13
-20 -3 0 -13 9 -23 20 -10 11 -16 20 -13 20 3 0 13 -9 23 -20z m-10 -70 c-3
-5 -12 -10 -18 -10 -7 0 -6 4 3 10 19 12 23 12 15 0z m-3755 -63 c0 -2 -12
-14 -27 -28 l-28 -24 24 28 c23 25 31 32 31 24z m409 -20 c8 -10 7 -14 -2 -14
-8 0 -14 6 -14 14 0 7 1 13 2 13 2 0 8 -6 14 -13z m1821 -74 c-23 -27 -46 -58
-51 -71 -5 -13 -13 -21 -18 -17 -5 3 -17 -5 -25 -17 -9 -12 -16 -18 -16 -12 0
6 32 45 71 87 77 84 106 106 39 30z m-537 -27 c31 -35 50 -63 43 -62 -18 3
-48 27 -41 34 3 3 -14 25 -37 49 -23 24 -38 43 -32 43 6 0 36 -29 67 -64z
m-1393 -98 c0 -57 2 -146 4 -198 2 -52 1 -81 -2 -65 l-5 30 -7 -30 c-4 -16 -8
59 -9 168 -1 125 3 197 9 197 6 0 10 -41 10 -102z m3025 92 c3 -6 -1 -7 -9 -4
-18 7 -21 14 -7 14 6 0 13 -4 16 -10z m282 -171 c-5 -167 -8 -203 -20 -215 -9
-9 -9 358 -1 381 17 44 25 -16 21 -166z m-3367 161 c0 -6 -7 -13 -15 -16 -8
-4 -15 -14 -15 -23 0 -11 -3 -12 -8 -4 -16 25 -42 -44 -51 -138 -18 -171 -28
-570 -15 -590 2 -4 1 -15 -3 -26 -14 -35 -24 58 -30 287 -7 315 13 431 87 494
33 27 50 33 50 16z m3493 -58 c38 -63 50 -164 49 -412 0 -172 -4 -250 -14
-290 -15 -55 -15 -54 -15 100 0 246 -10 480 -23 540 -14 63 -38 98 -53 78 -6
-9 -7 -8 -3 5 3 11 0 17 -9 17 -8 0 -15 7 -15 16 0 14 5 13 33 -4 17 -11 40
-34 50 -50z m-3344 -125 c-1 -134 -3 -164 -11 -137 -12 40 -13 73 -10 218 1
66 6 101 12 97 6 -4 10 -73 9 -178z m3129 -27 c0 -52 -4 -106 -8 -120 -6 -16
-7 4 -5 55 2 60 1 69 -5 35 -5 -33 -7 -14 -8 75 -2 142 9 204 19 110 4 -33 7
-103 7 -155z m-1519 181 c11 -9 22 -27 26 -39 6 -22 5 -23 -14 -13 -12 7 -21
14 -21 17 0 3 5 2 11 -2 7 -4 10 -1 7 7 -3 8 -11 14 -19 14 -8 1 -13 5 -12 11
1 5 -13 10 -32 10 -19 0 -31 -4 -28 -10 3 -5 1 -6 -5 -2 -8 5 -12 0 -12 -13 0
-12 -6 -21 -14 -21 -8 0 -17 -6 -19 -12 -3 -7 -6 -3 -6 9 -2 53 94 83 138 44z
m1658 -258 c-1 -49 -3 -9 -3 87 0 96 2 136 3 88 2 -49 2 -127 0 -175z m-3417
90 c0 -80 -3 -144 -6 -140 -15 15 -13 287 2 287 2 0 4 -66 4 -147z m-27 118
c-4 -16 -8 -17 -18 -8 -15 14 -10 27 10 27 8 0 11 -7 8 -19z m3495 0 c3 -8 0
-11 -7 -7 -6 4 -11 1 -11 -6 0 -9 -3 -9 -10 2 -5 8 -10 19 -10 23 0 14 33 3
38 -12z m-3885 -36 c-3 -9 -8 -14 -10 -11 -3 3 -2 9 2 15 9 16 15 13 8 -4z
m2287 11 c0 -3 -4 -8 -10 -11 -5 -3 -10 -1 -10 4 0 6 5 11 10 11 6 0 10 -2 10
-4z m-1936 -60 c-3 -21 -9 -35 -11 -32 -3 3 -2 21 1 42 4 20 10 34 12 31 3 -3
2 -21 -2 -41z m3550 -1 c5 -20 4 -27 -3 -20 -5 6 -12 23 -15 39 -7 37 9 21 18
-19z m-888 6 c-7 -11 -263 -93 -381 -121 -98 -24 -251 -37 -241 -21 4 5 -2 11
-11 13 -10 2 22 9 72 16 137 18 505 97 563 121 2 0 1 -3 -2 -8z m1144 -11 c6
-11 8 -20 6 -20 -3 0 -10 9 -16 20 -6 11 -8 20 -6 20 3 0 10 -9 16 -20z
m-2840 -9 c25 -5 119 -25 210 -45 91 -20 208 -42 260 -48 52 -7 87 -14 78 -16
-10 -2 -18 -8 -18 -13 0 -12 -155 -5 -190 9 -14 5 -63 17 -109 27 -47 9 -92
21 -100 25 -9 5 -60 23 -113 40 -54 18 -98 34 -98 36 0 3 8 3 18 0 9 -3 37
-10 62 -15z m875 -11 c-3 -5 -12 -10 -18 -10 -7 0 -6 4 3 10 19 12 23 12 15 0z
m-52 -17 c-7 -2 -21 -2 -30 0 -10 3 -4 5 12 5 17 0 24 -2 18 -5z m-706 -99
c-3 -3 -12 -4 -19 -1 -8 3 -5 6 6 6 11 1 17 -2 13 -5z m478 -4 c3 -5 -1 -10
-9 -10 -8 0 -18 5 -21 10 -3 6 1 10 9 10 8 0 18 -4 21 -10z m445 0 c-20 -13
-33 -13 -25 0 3 6 14 10 23 10 15 0 15 -2 2 -10z m477 4 c-3 -3 -12 -4 -19 -1
-8 3 -5 6 6 6 11 1 17 -2 13 -5z m-1615 -30 c21 -4 35 -11 32 -16 -3 -5 5 -6
20 -2 15 3 26 2 26 -4 0 -6 10 -8 23 -5 18 4 19 3 7 -7 -12 -9 -11 -10 8 -5
29 8 70 -4 52 -15 -8 -5 0 -8 21 -8 19 1 57 -10 84 -22 28 -13 54 -22 59 -21
5 1 16 -4 25 -12 15 -13 180 -116 211 -131 8 -4 -10 16 -40 43 -30 28 -54 56
-52 61 1 6 -3 10 -10 10 -6 0 -9 2 -6 5 9 10 69 -17 134 -61 73 -49 100 -57
64 -19 -13 14 -18 25 -12 25 7 0 12 -4 12 -8 0 -5 6 -10 13 -11 29 -4 73 -9
85 -10 6 -1 12 -9 12 -18 0 -15 2 -15 9 -4 6 9 6 23 0 35 -9 18 -7 17 10 -3
30 -34 28 -101 -4 -139 -75 -90 -207 -70 -382 58 -32 23 -101 67 -153 97 -52
30 -84 51 -70 48 14 -4 56 -27 94 -51 66 -42 113 -60 71 -28 -100 77 -235 124
-364 126 -89 2 -128 -16 -171 -78 -14 -19 -35 -48 -47 -63 -12 -16 -25 -47
-29 -69 -8 -50 4 -141 16 -122 6 10 9 8 12 -6 3 -10 4 22 4 71 -1 69 3 99 17
127 22 44 61 84 99 104 42 22 33 9 -18 -27 -29 -20 -53 -47 -65 -73 -21 -46
-27 -92 -8 -66 8 11 9 6 4 -18 -9 -44 4 -152 17 -149 6 1 15 -12 19 -29 5 -17
19 -39 31 -50 20 -18 20 -17 -2 13 -19 27 -24 47 -26 113 -3 78 1 110 15 110
3 0 7 -29 9 -64 2 -65 27 -158 56 -214 39 -75 171 -137 293 -137 84 0 83 -10
-2 -18 -38 -4 -74 -1 -98 8 -37 13 -38 13 -21 -6 27 -30 80 -42 174 -37 74 3
98 9 154 37 36 18 79 44 96 58 17 13 28 19 25 11 -10 -22 -104 -91 -158 -116
l-52 -23 50 6 c114 12 223 95 286 215 33 64 36 55 10 -28 -10 -34 -35 -81 -56
-106 -21 -25 -34 -46 -30 -46 4 0 2 -7 -5 -15 -22 -27 52 2 80 31 l25 27 -36
-27 c-54 -39 -58 -31 -7 14 25 22 53 56 63 77 10 21 23 45 31 53 14 17 36 70
29 70 -3 0 -10 -12 -16 -26 -5 -15 -12 -24 -15 -21 -9 9 7 68 17 61 5 -3 9 2
9 11 0 9 -5 13 -11 9 -8 -4 -8 0 0 15 14 25 23 28 14 4 -4 -10 -2 -14 4 -10 7
5 9 -1 6 -15 -5 -21 -2 -20 20 7 14 17 31 47 38 68 7 20 16 37 21 37 4 0 8 -2
8 -4 0 -11 -36 -81 -80 -156 -55 -95 -93 -171 -87 -177 3 -2 16 20 31 49 57
114 134 228 153 228 12 0 12 -3 -1 -16 -26 -25 -18 -30 8 -5 l24 22 16 -22 c9
-13 16 -19 16 -13 0 5 -5 15 -12 22 -9 9 -9 12 3 12 8 0 31 -25 50 -56 18 -31
48 -78 66 -105 19 -30 30 -56 26 -66 -5 -12 -3 -14 7 -8 10 6 12 4 7 -8 -3 -9
0 -18 9 -21 18 -7 12 22 -16 70 -10 18 -14 37 -10 44 5 8 10 2 15 -19 4 -18
31 -58 63 -93 54 -59 55 -70 3 -24 l-24 21 14 -22 c14 -23 36 -37 79 -49 22
-6 23 -5 11 10 -7 9 -10 16 -6 16 4 0 -13 22 -37 49 -32 35 -47 63 -56 101
-17 73 -14 81 11 34 37 -68 88 -132 127 -159 43 -30 138 -65 176 -65 22 0 16
5 -32 30 -32 16 -79 48 -104 71 -25 23 -34 34 -20 25 14 -9 58 -33 98 -53 115
-56 270 -60 328 -6 22 19 24 24 9 18 -55 -20 -80 -23 -132 -17 l-58 6 72 7
c104 10 202 50 251 103 47 51 81 143 89 244 3 39 10 72 14 72 16 0 15 -153 -2
-200 -9 -24 -8 -24 6 -6 8 11 15 29 15 40 0 17 2 18 9 7 18 -29 33 106 18 164
l-7 30 15 -25 16 -25 -7 35 c-9 53 -35 91 -86 130 -56 41 -55 54 2 16 73 -48
118 -151 103 -240 -3 -19 -2 -43 1 -53 16 -40 31 38 27 133 0 17 -10 42 -22
55 -11 13 -30 39 -42 58 -12 19 -39 48 -60 65 -37 29 -43 31 -121 29 -133 -3
-280 -56 -381 -138 -28 -22 42 12 119 59 33 20 67 36 75 36 16 0 -24 -24 -134
-81 -33 -18 -74 -44 -92 -60 -68 -59 -170 -111 -235 -119 -77 -9 -111 3 -156
54 -34 39 -39 64 -21 115 13 38 28 41 21 4 -4 -25 -3 -26 9 -12 8 9 29 19 47
23 52 9 59 11 78 26 16 13 17 13 9 0 -4 -8 -15 -23 -23 -33 -15 -16 -14 -17 4
-11 10 4 48 26 84 50 36 23 76 45 90 48 14 4 3 -6 -25 -20 -27 -15 -44 -29
-37 -32 7 -2 25 4 40 13 15 9 2 -7 -28 -35 -30 -28 -50 -50 -45 -48 10 3 104
58 150 88 69 45 95 59 89 48 -4 -7 6 -3 22 8 44 31 113 55 138 49 15 -5 17 -4
8 3 -18 12 30 25 61 17 18 -5 19 -4 7 5 -12 10 -11 11 8 7 12 -3 22 -1 22 5 0
6 9 8 20 5 10 -3 20 -1 22 5 2 5 29 12 59 15 52 5 61 3 101 -25 73 -50 130
-114 162 -182 28 -59 31 -73 30 -160 -1 -70 -7 -110 -23 -155 -12 -33 -29 -82
-38 -110 -8 -27 -22 -66 -29 -85 l-14 -35 24 27 c16 18 26 23 29 15 3 -7 6 4
7 23 0 30 2 32 11 17 15 -25 4 -63 -37 -124 -19 -29 -34 -57 -34 -62 0 -5 -7
-14 -15 -21 -8 -7 -12 -17 -9 -22 7 -12 -25 -48 -89 -99 -51 -41 -55 -51 -9
-22 30 19 142 133 142 146 0 5 -5 5 -11 1 -23 -14 10 32 48 66 l38 35 -39 -42
c-22 -24 -35 -46 -31 -53 4 -6 -7 -29 -25 -51 -18 -22 -30 -42 -27 -45 4 -5
51 46 75 82 11 17 12 17 7 -6 -4 -17 4 -9 27 25 27 42 33 60 33 107 0 32 3 58
7 58 4 0 20 -18 34 -40 22 -32 26 -48 22 -82 -5 -40 -54 -137 -70 -138 -4 0
-26 -19 -49 -42 -38 -39 -37 -37 9 19 28 35 56 79 62 98 6 19 15 35 19 35 10
0 11 72 0 90 -7 12 -8 11 -9 -5 0 -22 -82 -170 -107 -195 -11 -10 -10 -6 2 13
10 15 15 30 12 33 -6 6 -57 -70 -57 -85 0 -5 -19 -24 -41 -42 -52 -41 -142
-53 -181 -24 l-23 17 25 -6 c67 -17 75 -17 41 -1 -20 9 -46 13 -62 10 -19 -4
-28 -1 -33 10 -3 9 -31 28 -62 42 -49 22 -66 25 -132 21 l-76 -5 -52 -56 c-69
-74 -83 -129 -66 -255 13 -94 30 -167 38 -159 3 3 1 22 -5 43 -5 22 -13 62
-16 89 -3 28 -8 63 -11 79 -4 18 -2 26 4 22 5 -3 12 4 16 17 6 26 41 34 50 11
3 -8 2 -12 -3 -9 -5 3 -12 2 -15 -3 -2 -4 4 -13 15 -20 17 -11 19 -9 20 10 1
13 2 28 4 33 1 6 3 15 3 22 1 6 17 22 35 34 21 16 27 17 18 6 -7 -9 -9 -17 -3
-17 5 0 0 -19 -11 -42 -12 -25 -23 -69 -25 -105 -3 -35 -9 -63 -15 -63 -15 0
-67 61 -68 79 0 9 -3 11 -5 5 -3 -6 7 -47 21 -90 l26 -79 -28 -22 c-15 -12
-36 -29 -45 -38 -24 -20 -27 -19 -20 7 5 19 4 20 -10 8 -9 -8 -14 -19 -12 -25
6 -13 -55 -40 -66 -29 -4 5 -15 33 -25 62 -9 28 -19 52 -22 52 -3 0 -2 -29 2
-65 6 -64 1 -105 -14 -105 -18 0 -70 57 -74 80 -2 14 -5 3 -6 -23 0 -26 -8
-58 -17 -71 l-15 -24 -37 40 -37 39 -25 -22 c-14 -12 -35 -31 -47 -42 l-22
-20 -46 41 -46 40 -39 -41 c-26 -28 -40 -37 -40 -26 0 9 -7 22 -15 29 -9 7
-13 21 -9 34 2 11 1 39 -5 61 l-9 40 -1 -43 c-1 -34 -7 -48 -28 -67 -34 -30
-35 -30 -50 -6 -8 12 -9 37 -4 74 11 79 -2 88 -23 17 -19 -61 -24 -65 -69 -45
-18 8 -18 38 -1 110 4 16 3 17 -5 5 -6 -8 -11 -10 -12 -5 -1 15 -18 -27 -18
-45 0 -9 4 -8 9 5 8 19 9 19 9 -2 1 -13 -3 -23 -9 -23 -5 0 -10 -7 -10 -15 0
-13 -6 -11 -29 6 -26 19 -28 24 -20 53 16 54 32 179 30 235 -3 67 -32 130 -81
175 -43 39 -86 50 -163 44 -55 -4 -146 -43 -154 -66 -4 -8 -15 -11 -32 -8 -14
3 -39 -1 -56 -9 -29 -15 -29 -15 -3 -10 14 3 34 8 44 12 12 5 15 3 9 -6 -6
-10 -2 -11 16 -6 15 4 19 3 12 -2 -7 -5 -46 -10 -87 -11 -69 -3 -76 -1 -117
31 -24 18 -52 49 -61 68 -16 35 -48 69 -48 52 0 -5 5 -14 12 -21 6 -6 10 -14
7 -16 -9 -9 -109 167 -109 191 0 13 -4 23 -10 23 -21 0 -9 -85 20 -145 16 -32
26 -63 23 -69 -3 -5 -2 -6 4 -3 11 7 80 -59 71 -68 -3 -3 -18 11 -33 31 -18
23 -30 32 -35 25 -8 -14 -90 139 -90 169 0 27 22 70 49 94 20 18 20 18 19 -5
-4 -57 4 -88 38 -144 19 -33 32 -49 29 -35 l-6 25 17 -22 c26 -36 65 -76 69
-71 3 2 -9 21 -26 42 -54 64 -25 49 35 -19 31 -36 67 -70 79 -77 12 -6 0 12
-28 41 -27 29 -49 57 -48 62 2 5 -2 8 -9 6 -7 -1 -12 5 -13 13 0 8 -21 49 -47
91 -47 75 -57 110 -39 138 6 10 9 3 9 -22 0 -32 40 -123 49 -113 2 2 -5 19
-16 37 -12 19 -21 43 -21 54 1 17 3 15 16 -8 21 -38 30 -27 10 12 -9 16 -16
38 -16 48 0 10 -14 54 -32 98 -29 73 -32 90 -33 190 0 104 2 114 32 175 32 66
74 114 148 169 41 30 70 36 137 25z m-1031 -105 l-21 -23 18 45 c13 35 18 39
20 22 2 -12 -6 -32 -17 -44z m3876 -4 c12 -27 12 -28 -1 -11 -14 17 -15 14
-19 -40 -2 -46 -3 -40 -4 26 -1 47 1 78 4 70 3 -8 12 -28 20 -45z m-3410 13
c-3 -7 -5 -2 -5 12 0 14 2 19 5 13 2 -7 2 -19 0 -25z m2961 -60 c7 -54 6 -65
-4 -57 -7 6 -13 18 -13 27 -6 137 1 150 17 30z m-2887 -58 c-6 -88 -8 -99 -9
-50 -2 64 8 174 14 167 2 -2 0 -55 -5 -117z m-524 73 c-3 -10 -5 -4 -5 12 0
17 2 24 5 18 2 -7 2 -21 0 -30z m435 -15 c3 -26 2 -45 -2 -43 -5 3 -11 -1 -14
-7 -4 -7 -4 5 -1 27 3 22 5 49 5 59 0 33 7 13 12 -36z m2880 -20 c2 -21 0 -38
-4 -38 -4 0 -8 21 -7 48 1 52 6 48 11 -10z m-1697 32 c3 -6 -1 -7 -9 -4 -18 7
-21 14 -7 14 6 0 13 -4 16 -10z m610 0 c-3 -5 -12 -10 -18 -10 -7 0 -6 4 3 10
19 12 23 12 15 0z m-1891 -16 c19 -7 21 -40 4 -47 -7 -2 -53 -5 -101 -6 -80
-2 -88 0 -85 16 5 30 134 56 182 37z m3301 -8 c23 -7 40 -18 40 -26 0 -23
-177 -27 -195 -5 -33 40 61 60 155 31z m273 -41 c-3 -3 -9 2 -12 12 -6 14 -5
15 5 6 7 -7 10 -15 7 -18z m-3915 -86 c-5 -5 -6 11 -3 34 4 41 5 41 8 8 2 -18
0 -37 -5 -42z m147 36 c0 -8 -2 -15 -4 -15 -2 0 -6 7 -10 15 -3 8 -1 15 4 15
6 0 10 -7 10 -15z m3556 -12 c-10 -10 -19 5 -10 18 6 11 8 11 12 0 2 -7 1 -15
-2 -18z m-3440 -46 c-23 -50 -99 -170 -136 -212 -10 -11 -20 -27 -23 -35 -4
-10 -6 -8 -6 6 -1 12 13 39 30 60 17 22 45 66 61 99 41 81 76 135 88 135 5 0
-2 -24 -14 -53z m3310 45 c6 -4 33 -47 59 -96 27 -49 63 -109 82 -133 32 -42
43 -71 23 -58 -20 12 -131 177 -158 235 -28 58 -29 68 -6 52z m274 -20 c0 -15
-2 -15 -10 -2 -13 20 -13 33 0 25 6 -3 10 -14 10 -23z m-523 -124 c-2 -18 -4
-4 -4 32 0 36 2 50 4 33 2 -18 2 -48 0 -65z m-1298 -81 c17 -27 26 -35 32 -26
5 8 7 1 7 -19 -1 -18 2 -35 5 -39 4 -3 8 14 8 38 1 25 4 34 6 20 3 -13 2 -40
-2 -59 l-7 -36 -35 65 c-67 122 -73 133 -72 149 0 8 8 -1 18 -20 9 -19 28 -52
40 -73z m1527 66 c15 -20 23 -33 16 -29 -13 8 -56 66 -49 66 3 0 17 -17 33
-37z m-3236 23 c0 -2 -8 -10 -17 -17 -16 -13 -17 -12 -4 4 13 16 21 21 21 13z
m1612 -21 c0 -5 -5 -11 -11 -13 -6 -2 -11 4 -11 13 0 9 5 15 11 13 6 -2 11 -8
11 -13z m-1652 -29 c0 -2 -8 -10 -17 -17 -16 -13 -17 -12 -4 4 13 16 21 21 21
13z m247 -43 c-3 -10 -5 -2 -5 17 0 19 2 27 5 18 2 -10 2 -26 0 -35z m1547 21
c3 -8 2 -13 -3 -9 -5 3 -11 0 -13 -7 -3 -7 -7 -5 -11 6 -4 10 -3 15 3 11 6 -3
10 -1 10 4 0 16 7 13 14 -5z m-991 -148 c45 -30 105 -51 197 -70 14 -2 -16 -3
-66 -1 -102 3 -145 19 -200 70 -24 23 -32 38 -27 50 5 14 3 16 -8 10 -8 -4
-11 -5 -7 0 4 4 0 22 -9 39 -13 26 -8 23 27 -17 23 -26 65 -62 93 -81z m2234
92 c-3 -7 -5 -2 -5 12 0 14 2 19 5 13 2 -7 2 -19 0 -25z m-434 5 c-3 -10 -20
-36 -36 -58 -25 -35 -26 -36 -3 -12 14 15 26 24 26 19 0 -14 -73 -78 -109 -97
-20 -10 -67 -17 -129 -20 -53 -2 -86 -2 -72 1 154 29 197 50 279 137 25 26 46
47 48 47 1 0 0 -8 -4 -17z m-2862 -41 c-22 -7 -12 -83 16 -121 24 -32 24 -34
3 -16 -26 23 -50 74 -50 107 0 13 8 35 17 48 16 23 18 24 21 5 3 -10 -1 -21
-7 -23z m3820 17 c15 -30 5 -107 -17 -128 -17 -15 -17 -15 -5 1 7 10 10 27 6
40 -5 19 -4 20 5 8 10 -12 11 -10 6 10 -3 14 -6 34 -7 45 -1 14 -4 10 -9 -10
-7 -28 -8 -27 -9 13 -1 46 12 55 30 21z m-2466 -129 c-3 -5 -14 -10 -23 -9
-14 0 -13 2 3 9 27 11 27 11 20 0z m1120 -8 c-3 -3 -11 0 -18 7 -9 10 -8 11 6
5 10 -3 15 -9 12 -12z m-2078 -34 c-3 -7 -5 -2 -5 12 0 14 2 19 5 13 2 -7 2
-19 0 -25z m3014 1 c-9 -22 -10 -22 -10 -3 -1 11 2 24 6 27 12 12 14 0 4 -24z
m-2701 -59 c0 -5 -2 -10 -4 -10 -3 0 -8 5 -11 10 -3 6 -1 10 4 10 6 0 11 -4
11 -10z m8 -40 c7 -11 9 -20 4 -20 -4 0 -13 9 -20 20 -7 11 -9 20 -4 20 4 0
13 -9 20 -20z m48 -18 c17 -27 17 -27 -15 2 -35 33 -37 38 -17 30 8 -3 22 -18
32 -32z m2334 18 c-6 -11 -13 -20 -16 -20 -2 0 0 9 6 20 6 11 13 20 16 20 2 0
0 -9 -6 -20z m907 -92 c-3 -7 -5 -2 -5 12 0 14 2 19 5 13 2 -7 2 -19 0 -25z
m-321 -130 c34 -26 71 -48 83 -48 35 0 65 -72 58 -141 -3 -31 -12 -68 -22 -82
-16 -26 -75 -71 -60 -46 6 9 3 10 -11 4 -10 -4 -30 -9 -44 -11 -19 -3 -18 -2
5 6 17 5 46 25 64 44 28 29 35 45 38 88 3 29 1 63 -4 74 -4 12 -54 56 -110 98
-55 42 -107 84 -115 94 -16 20 34 -14 118 -80z m-3447 78 c-19 -18 -176 -139
-190 -147 -53 -28 -58 -138 -10 -197 14 -18 44 -39 66 -48 34 -12 36 -14 10
-11 -16 2 -39 8 -49 12 -15 7 -18 5 -12 -6 4 -8 -8 2 -27 22 -49 51 -64 119
-40 184 10 26 25 51 33 55 41 19 73 39 136 87 38 29 73 53 78 53 5 0 7 -2 5
-4z m2882 -19 c-10 -9 -11 -8 -5 6 3 10 9 15 12 12 3 -3 0 -11 -7 -18z m-21
-37 c-6 -11 -13 -20 -16 -20 -2 0 0 9 6 20 6 11 13 20 16 20 2 0 0 -9 -6 -20z
m-3703 -12 c-3 -8 -6 -5 -6 6 -1 11 2 17 5 13 3 -3 4 -12 1 -19z m1729 6 c-22
-8 -41 -12 -44 -9 -7 6 39 24 63 24 11 0 3 -7 -19 -15z m1580 1 c18 -14 17
-14 -11 -6 -57 17 -60 19 -34 20 14 1 34 -6 45 -14z m-3586 -22 c18 -24 21
-36 15 -77 -10 -82 -36 -116 -86 -116 -28 0 -23 12 11 32 30 17 43 52 15 42
-21 -9 -65 40 -65 73 0 70 69 98 110 46z m146 19 c45 -30 43 -141 -4 -194 -19
-23 -82 -25 -82 -3 0 9 9 15 23 15 25 0 47 17 47 37 0 7 -7 10 -15 7 -21 -9
-65 40 -65 73 0 56 55 93 96 65z m5341 0 c33 -21 39 -123 11 -175 -10 -20 -68
-48 -80 -41 -16 10 -7 33 13 36 12 2 28 13 37 26 14 21 13 22 -16 22 -56 0
-84 78 -42 120 20 20 55 26 77 12z m164 -13 c31 -31 24 -137 -11 -174 -27 -28
-80 -35 -80 -10 0 9 9 15 25 15 14 0 29 8 35 19 15 29 13 31 -21 31 -25 0 -32
6 -44 34 -32 76 41 140 96 85z m-4021 -24 c13 -14 21 -25 18 -25 -2 0 -15 11
-28 25 -13 14 -21 25 -18 25 2 0 15 -11 28 -25z m51 8 c13 -16 12 -17 -3 -4
-10 7 -18 15 -18 17 0 8 8 3 21 -13z m2218 4 c-2 -1 -13 -9 -24 -17 -19 -14
-19 -14 -6 3 7 9 18 17 24 17 6 0 8 -1 6 -3z m-1593 -59 c8 -16 13 -32 11 -34
-3 -3 -14 14 -26 36 -12 23 -17 39 -11 35 6 -3 17 -20 26 -37z m976 20 c-7 -7
-12 -8 -12 -2 0 6 3 14 7 17 3 4 9 5 12 2 2 -3 -1 -11 -7 -17z m-2216 3 c-3
-5 1 -11 9 -15 8 -3 15 0 15 7 1 7 7 -3 16 -22 8 -19 23 -40 33 -48 24 -16 37
-71 22 -86 -6 -6 -11 -18 -11 -26 0 -9 -12 -29 -26 -46 l-26 -30 21 32 c32 47
28 103 -10 157 -19 26 -43 47 -58 51 -25 6 -25 7 -7 21 23 16 30 18 22 5z
m3457 -5 c16 -13 16 -14 -7 -20 -33 -8 -84 -75 -94 -122 -8 -35 -9 -37 -16
-16 -7 20 -10 21 -24 10 -18 -15 35 68 61 94 9 10 17 22 17 27 0 5 12 12 27
16 21 5 24 8 12 16 -7 5 -9 9 -4 9 6 -1 18 -7 28 -14z m-2283 -88 c0 -21 5
-38 11 -38 7 0 9 9 6 21 -5 17 -3 18 10 7 14 -11 15 -10 9 9 -6 18 -4 20 14
16 12 -3 20 -14 21 -27 1 -19 2 -19 10 4 12 35 2 -119 -13 -192 -12 -57 -23
-72 -34 -44 -5 13 7 66 32 143 4 11 -8 4 -29 -17 -19 -19 -38 -36 -43 -37 -5
-1 -10 29 -12 65 -2 36 -10 82 -19 102 -8 19 -17 46 -19 60 l-5 25 30 -29 c24
-23 31 -38 31 -68z m15 82 c3 -5 1 -10 -4 -10 -6 0 -11 5 -11 10 0 6 2 10 4
10 3 0 8 -4 11 -10z m1640 -10 c-3 -5 -12 -10 -18 -10 -7 0 -6 4 3 10 19 12
23 12 15 0z m-2005 -4 c0 -2 -8 -10 -17 -17 -16 -13 -17 -12 -4 4 13 16 21 21
21 13z m1366 -33 c-8 -15 -15 -25 -16 -21 0 12 23 58 27 54 3 -2 -2 -17 -11
-33z m-1696 12 c0 -7 -432 -351 -460 -365 -14 -7 -45 -29 -69 -49 -52 -42 -46
-24 8 24 39 36 232 187 315 248 28 20 83 61 121 91 65 51 85 63 85 51z m2629
-127 c89 -68 186 -141 215 -163 82 -62 166 -138 166 -149 0 -5 -12 2 -27 15
-16 14 -59 48 -98 74 -38 27 -117 88 -175 135 -58 47 -134 108 -169 135 -91
71 -109 88 -90 82 9 -3 89 -61 178 -129z m-2376 105 c-7 -2 -19 -2 -25 0 -7 3
-2 5 12 5 14 0 19 -2 13 -5z m1964 1 c-3 -3 -12 -4 -19 -1 -8 3 -5 6 6 6 11 1
17 -2 13 -5z m-2718 -20 c2 -2 -10 -4 -27 -4 -61 0 -94 -63 -50 -94 30 -21 14
-21 -17 0 -15 10 -25 26 -25 41 0 34 19 66 35 59 8 -3 17 -1 20 4 5 9 52 4 64
-6z m3554 -16 c29 -34 18 -68 -33 -92 -8 -4 -5 2 8 13 39 34 7 90 -51 92 -27
0 -29 2 -12 9 28 11 67 2 88 -22z m-3543 -83 c-7 -8 -16 -15 -21 -15 -5 0 -1
8 9 18 20 22 31 19 12 -3z m2560 5 c0 -11 -4 -20 -9 -20 -5 0 -7 9 -4 20 3 11
7 20 9 20 2 0 4 -9 4 -20z m-2405 -10 c10 -11 16 -20 13 -20 -3 0 -13 9 -23
20 -10 11 -16 20 -13 20 3 0 13 -9 23 -20z m585 -24 c0 -27 -10 -14 -16 20 -3
22 -2 25 6 14 5 -8 10 -24 10 -34z m159 -71 c0 -11 -7 3 -14 30 -8 28 -14 59
-14 70 0 11 7 -2 14 -30 8 -27 14 -59 14 -70z m1796 68 c-9 -37 -18 -20 -9 19
4 18 9 27 11 20 3 -7 2 -24 -2 -39z m751 20 c-7 -7 -26 7 -26 19 0 6 6 6 15
-2 9 -7 13 -15 11 -17z m-2319 -15 c-3 -8 -6 -5 -6 6 -1 11 2 17 5 13 3 -3 4
-12 1 -19z m2143 12 c0 -5 -5 -10 -11 -10 -5 0 -7 5 -4 10 3 6 8 10 11 10 2 0
4 -4 4 -10z m119 -45 c11 -14 7 -12 -12 4 -15 14 -27 32 -27 40 1 12 3 11 12
-4 6 -11 18 -29 27 -40z m-852 -27 c-3 -7 -5 -2 -5 12 0 14 2 19 5 13 2 -7 2
-19 0 -25z m-1800 -10 c-3 -8 -6 -5 -6 6 -1 11 2 17 5 13 3 -3 4 -12 1 -19z
m1950 -25 c-3 -10 -5 -4 -5 12 0 17 2 24 5 18 2 -7 2 -21 0 -30z m-172 -73
c-13 -79 -14 -80 -9 -20 5 66 14 113 20 108 1 -2 -4 -42 -11 -88z m-2105 77
c0 -16 -317 -257 -338 -257 -6 0 -15 -8 -21 -17 -5 -10 -13 -14 -18 -10 -9 10
27 41 152 132 50 36 117 86 149 110 53 40 76 52 76 42z m337 -29 c-3 -7 -5 -2
-5 12 0 14 2 19 5 13 2 -7 2 -19 0 -25z m2407 -58 c182 -136 236 -181 236
-196 0 -9 -7 -7 -22 7 -13 11 -70 54 -128 95 -104 73 -233 183 -216 184 5 0
63 -41 130 -90z m-2564 70 c0 -5 -7 -10 -16 -10 -8 0 -12 5 -9 10 3 6 10 10
16 10 5 0 9 -4 9 -10z m317 -22 c-3 -7 -5 -2 -5 12 0 14 2 19 5 13 2 -7 2 -19
0 -25z m1948 22 c3 -5 -1 -10 -10 -10 -9 0 -13 5 -10 10 3 6 8 10 10 10 2 0 7
-4 10 -10z m-178 -32 c-3 -8 -6 -5 -6 6 -1 11 2 17 5 13 3 -3 4 -12 1 -19z
m-2162 -23 c-16 -14 -41 -38 -55 -53 -14 -15 -20 -21 -15 -13 8 13 6 13 -15
-1 -14 -9 -24 -22 -22 -28 1 -6 -3 -8 -9 -4 -6 4 -27 -10 -48 -32 -37 -40
-107 -96 -295 -239 -58 -44 -106 -83 -106 -87 0 -12 -13 -9 -35 8 -18 14 -19
16 -3 25 16 9 72 50 368 268 228 168 245 180 255 181 6 0 -3 -11 -20 -25z
m254 -107 c0 -42 6 -80 11 -83 6 -3 10 -14 10 -23 0 -14 -2 -15 -10 -2 -6 10
-10 -9 -12 -60 -2 -41 -5 -9 -6 71 -1 81 -4 166 -6 190 -4 36 -4 38 3 14 5
-16 9 -65 10 -107z m328 85 c-3 -10 -5 -2 -5 17 0 19 2 27 5 18 2 -10 2 -26 0
-35z m1243 32 c0 -8 -4 -15 -10 -15 -5 0 -7 7 -4 15 4 8 8 15 10 15 2 0 4 -7
4 -15z m793 -156 c127 -94 248 -184 267 -198 19 -15 57 -42 83 -60 48 -33 49
-33 25 -45 -12 -7 -25 -10 -28 -7 -3 3 -47 37 -97 76 -51 38 -93 73 -93 77 0
5 -5 8 -11 8 -14 0 -131 94 -203 163 -28 26 -56 45 -63 43 -14 -6 -36 18 -26
27 3 4 0 7 -8 7 -17 1 -107 80 -90 80 6 0 116 -77 244 -171z m-2205 66 c0 -25
-2 -24 -9 10 -10 51 -10 92 1 50 4 -16 8 -43 8 -60z m1733 -55 c-7 -111 -8
-116 -9 -44 -2 73 7 179 13 172 2 -2 0 -59 -4 -128z m-1494 88 c-3 -7 -5 -2
-5 12 0 14 2 19 5 13 2 -7 2 -19 0 -25z m1103 -1 c0 -18 -2 -19 -10 -7 -13 20
-13 43 0 35 6 -3 10 -16 10 -28z m-237 3 c3 -11 1 -18 -4 -14 -5 3 -9 12 -9
20 0 20 7 17 13 -6z m175 -18 c0 -4 0 -14 1 -22 1 -13 2 -13 11 0 7 11 10 -3
10 -46 0 -52 -4 -64 -25 -84 -29 -27 -31 -23 -39 63 -5 63 8 109 30 100 7 -3
13 -8 12 -11z m-952 -4 c11 -18 5 -140 -8 -155 -9 -11 -14 -11 -29 3 -21 19
-27 108 -9 119 6 3 10 15 10 26 0 21 25 26 36 7z m1031 -20 c-3 -8 -6 -5 -6 6
-1 11 2 17 5 13 3 -3 4 -12 1 -19z m260 0 c-3 -8 -6 -5 -6 6 -1 11 2 17 5 13
3 -3 4 -12 1 -19z m-1179 -35 c13 -12 15 -105 5 -165 l-5 -27 -34 26 c-32 24
-34 29 -34 89 0 34 5 75 10 89 11 28 16 27 58 -12z m750 9 c9 -38 14 -114 8
-137 -5 -21 -62 -63 -71 -53 -1 2 -5 40 -8 85 l-6 82 31 26 c32 27 39 26 46
-3z m-1231 -19 c-3 -10 -5 -4 -5 12 0 17 2 24 5 18 2 -7 2 -21 0 -30z m1611
-5 c-1 -24 -10 -56 -20 -73 -10 -16 -18 -34 -18 -40 1 -5 8 2 16 18 8 15 17
27 21 27 23 0 -38 -234 -75 -290 -9 -14 -17 -29 -18 -35 -1 -24 -19 -64 -52
-115 -31 -49 -32 -52 -8 -31 33 31 33 22 1 -29 -14 -22 -25 -44 -25 -49 0 -5
-8 -15 -17 -22 -18 -15 -18 -15 3 35 3 9 0 14 -8 12 -27 -4 -40 -18 -34 -41 4
-15 0 -28 -11 -36 -15 -13 -15 -12 -3 11 l13 25 -28 -25 c-16 -14 -25 -19 -20
-11 6 10 4 12 -4 7 -7 -5 -10 -15 -7 -23 3 -8 2 -12 -3 -9 -5 3 -17 -7 -27
-22 -15 -24 -15 -25 -1 -13 9 7 17 9 17 3 0 -12 -25 -34 -32 -27 -3 3 -11 -3
-19 -12 -13 -16 -12 -17 4 -4 29 23 19 2 -28 -59 -105 -137 -237 -199 -338
-161 -37 14 -103 14 -129 0 -39 -21 -109 -14 -171 16 -61 30 -154 120 -216
211 l-34 49 33 -30 34 -30 -29 35 c-15 19 -32 34 -37 32 -5 -1 -7 2 -3 8 8 13
-22 63 -34 56 -4 -3 -25 9 -45 26 l-38 31 17 -32 c31 -62 -5 -26 -41 39 -36
64 -36 65 -8 40 l27 -25 -20 35 c-44 74 -63 115 -63 137 0 12 -5 23 -10 25
-15 5 -76 183 -85 246 -7 55 -2 63 22 35 13 -16 13 -15 1 7 -18 30 -28 79 -18
85 4 2 13 -15 19 -38 23 -78 89 -234 116 -273 15 -21 42 -69 61 -106 19 -38
36 -68 38 -68 5 0 -28 107 -48 155 -19 44 -19 45 -7 45 5 0 12 -16 15 -35 4
-19 11 -37 16 -40 5 -3 5 8 0 27 -6 17 -8 34 -5 36 2 2 7 -7 10 -21 4 -15 14
-32 23 -39 14 -12 14 -10 3 12 -11 23 -11 23 3 7 8 -11 12 -26 9 -35 -4 -10
-2 -13 5 -8 7 4 12 3 12 -3 0 -5 32 -41 70 -80 46 -45 70 -77 71 -93 0 -29 38
-120 38 -94 1 16 3 16 21 -5 l21 -24 -17 35 c-10 19 -20 51 -24 71 -6 32 -5
36 12 31 36 -9 86 -66 98 -112 15 -57 40 -110 51 -110 4 0 0 19 -10 43 -19 44
-34 107 -26 107 3 0 10 -20 16 -45 6 -25 15 -48 20 -51 4 -2 2 17 -6 43 -8 26
-15 49 -15 49 0 1 9 4 19 7 11 3 30 -2 42 -11 33 -23 200 -28 241 -7 17 8 46
15 65 15 45 0 45 -14 -2 -135 -7 -18 -6 -18 7 -5 9 8 26 46 38 83 22 69 64
122 88 112 7 -3 10 0 7 5 -3 6 -4 10 -1 10 2 0 12 3 20 6 13 5 15 2 9 -12 -4
-11 -13 -25 -20 -32 -7 -7 -13 -19 -13 -25 0 -7 4 -6 10 3 9 13 10 13 10 0 -1
-8 -7 -24 -15 -34 -8 -11 -15 -25 -15 -30 0 -6 7 -3 14 7 10 13 15 15 19 5 6
-18 37 58 37 91 0 19 21 47 75 103 41 43 75 82 75 88 0 6 5 8 12 4 7 -4 8 -3
4 4 -4 7 -4 17 0 23 5 8 9 8 14 -1 5 -8 11 -1 18 19 14 40 23 40 12 1 -5 -19
-5 -28 1 -25 5 4 9 13 9 22 0 9 3 14 6 11 7 -8 -45 -157 -66 -188 -9 -14 -20
-32 -25 -40 -7 -13 -6 -13 8 0 8 8 43 67 77 130 35 63 68 122 75 130 18 21 94
210 108 271 6 27 13 49 15 49 1 0 2 -19 0 -42z m777 -24 c17 -14 21 -21 10
-15 -11 6 -38 27 -60 47 -44 40 -2 13 50 -32z m-3055 53 c0 -2 -10 -12 -22
-23 l-23 -19 19 23 c18 21 26 27 26 19z m1289 -50 c8 -10 11 -45 9 -104 -3
-81 -5 -88 -24 -91 -12 -2 -34 8 -50 22 -26 21 -29 31 -28 78 1 73 8 99 29
114 19 14 42 7 64 -19z m476 13 c11 -12 19 -42 22 -83 6 -70 -8 -113 -33 -103
-8 3 -12 1 -9 -4 6 -10 -42 -26 -52 -17 -3 3 -6 47 -7 97 -1 86 0 92 24 110
31 24 33 24 55 0z m-2116 -29 c17 -21 31 -43 31 -47 0 -5 -7 2 -16 14 -9 14
-30 24 -55 28 -38 6 -39 7 -23 25 23 26 28 25 63 -20z m1805 -5 c22 -46 32
-160 17 -199 -9 -24 -15 -27 -38 -21 -16 4 -33 11 -40 16 -7 5 -17 7 -22 4
-16 -10 -41 36 -41 74 0 46 26 129 47 152 26 28 55 18 77 -26z m155 20 c26
-27 40 -80 41 -147 0 -43 -21 -91 -35 -77 -4 3 -22 0 -42 -8 -52 -22 -63 -8
-63 82 0 45 6 90 17 116 25 65 45 73 82 34z m708 -8 c-3 -7 -5 -2 -5 12 0 14
2 19 5 13 2 -7 2 -19 0 -25z m1093 2 c0 -6 -11 -10 -24 -10 -14 0 -39 -12 -57
-27 -25 -21 -30 -23 -21 -8 5 11 22 33 36 48 21 23 29 26 46 17 11 -6 20 -15
20 -20z m-1036 -17 c-4 -21 -11 -43 -16 -50 -5 -6 -6 -24 -3 -40 4 -23 4 -24
-4 -8 l-10 20 0 -20 c-1 -20 -45 -158 -57 -177 -4 -7 -10 -4 -16 5 -8 15 15
134 29 147 6 5 -5 -61 -14 -88 -4 -12 -3 -14 5 -7 6 6 22 51 37 100 42 146 64
198 49 118z m-2444 12 c-7 -8 -17 -15 -23 -15 -6 0 -2 7 9 15 25 19 30 19 14
0z m701 -25 c5 0 9 -9 9 -19 0 -27 50 -184 56 -178 3 3 1 22 -5 43 -6 21 -9
40 -7 42 5 4 32 -81 40 -123 l5 -30 -15 30 -15 30 5 -32 c8 -50 1 -40 -25 32
-15 42 -26 61 -31 53 -4 -7 -5 2 -1 21 4 25 3 32 -6 27 -9 -6 -10 0 -6 21 5
21 4 24 -4 13 -9 -12 -11 -9 -11 16 0 17 -2 44 -4 60 -2 16 -1 21 1 12 2 -10
9 -18 14 -18z m-191 16 c0 -2 -8 -10 -17 -17 -16 -13 -17 -12 -4 4 13 16 21
21 21 13z m1957 -28 c-3 -7 -5 -2 -5 12 0 14 2 19 5 13 2 -7 2 -19 0 -25z
m178 12 c3 -6 -1 -7 -9 -4 -18 7 -21 14 -7 14 6 0 13 -4 16 -10z m-158 -92
c-2 -13 -4 -3 -4 22 0 25 2 35 4 23 2 -13 2 -33 0 -45z m-2067 38 c0 -2 -25
-23 -56 -46 -32 -24 -54 -37 -50 -31 7 10 96 80 104 81 1 0 2 -2 2 -4z m2321
-23 c13 -16 12 -17 -3 -4 -17 13 -22 21 -14 21 2 0 10 -8 17 -17z m-1721 -54
c0 -21 -4 -39 -10 -39 -5 0 -10 21 -10 46 0 27 4 43 10 39 6 -3 10 -24 10 -46z
m-373 4 c-3 -10 -5 -4 -5 12 0 17 2 24 5 18 2 -7 2 -21 0 -30z m1476 -5 c-2
-53 -3 -54 -13 -38 -11 17 -13 63 -4 73 12 12 19 -1 17 -35z m667 20 c0 -6 -6
-5 -15 2 -8 7 -15 14 -15 16 0 2 7 1 15 -2 8 -4 15 -11 15 -16z m-1871 -38
c11 -24 11 -24 -3 -6 -9 11 -16 24 -16 30 0 12 5 7 19 -24z m1902 13 c13 -16
12 -17 -3 -4 -17 13 -22 21 -14 21 2 0 10 -8 17 -17z m-2361 3 c0 -2 -28 -25
-62 -50 -160 -120 -211 -157 -231 -167 l-22 -10 22 18 c12 10 48 37 80 60 32
23 91 67 132 97 73 55 81 60 81 52z m1760 -4 c0 -5 -7 -17 -15 -28 -14 -18
-14 -17 -4 9 12 27 19 34 19 19z m257 -14 c-3 -8 -6 -5 -6 6 -1 11 2 17 5 13
3 -3 4 -12 1 -19z m-2892 -28 c-22 -21 -47 -39 -55 -39 -8 0 5 17 30 39 58 51
77 51 25 0z m715 36 c0 -2 -8 -10 -17 -17 -16 -13 -17 -12 -4 4 13 16 21 21
21 13z m2191 -69 c-11 -25 -41 -65 -66 -89 -48 -44 -129 -149 -270 -350 -88
-125 -125 -173 -125 -162 0 4 8 17 19 28 39 43 151 221 151 240 0 11 3 16 6
13 9 -8 39 31 75 96 16 29 29 48 29 44 0 -5 25 21 57 57 31 36 60 63 64 60 11
-7 46 51 62 101 6 22 13 33 15 24 1 -8 -6 -36 -17 -62z m336 -33 c67 -49 130
-94 140 -101 10 -6 14 -12 8 -12 -11 -1 -203 138 -258 186 -46 39 -29 28 110
-73z m757 47 c11 -12 16 -21 12 -21 -11 0 -86 64 -86 73 0 10 49 -24 74 -52z
m-2944 2 c14 -42 38 -75 50 -68 5 3 36 -29 69 -71 34 -41 61 -72 61 -67 1 4
12 -13 25 -38 13 -25 37 -59 53 -77 16 -17 28 -33 25 -35 -2 -2 30 -54 71
-116 42 -61 74 -111 71 -111 -4 0 -134 181 -197 273 -56 82 -111 149 -165 202
-46 44 -83 104 -83 135 0 21 9 9 20 -27z m454 21 c11 -30 7 -96 -6 -92 -23 8
-39 54 -28 82 11 29 25 34 34 10z m971 -4 c9 -28 -3 -77 -21 -84 -15 -6 -19 9
-15 54 4 52 24 68 36 30z m-1392 -30 c3 -11 1 -18 -4 -14 -5 3 -9 12 -9 20 0
20 7 17 13 -6z m1790 5 c-3 -9 -8 -14 -10 -11 -3 3 -2 9 2 15 9 16 15 13 8 -4z
m-1296 -36 c16 -42 6 -134 -13 -118 -18 15 -28 71 -20 114 8 43 18 44 33 4z
m821 19 c0 -7 3 -28 6 -46 5 -34 -19 -102 -36 -102 -8 0 -13 54 -8 94 5 47 35
89 38 54z m185 -3 c-3 -9 -8 -14 -10 -11 -3 3 -2 9 2 15 9 16 15 13 8 -4z
m-905 -116 c6 -102 -21 -127 -52 -48 -19 46 -20 82 -5 110 9 19 13 19 32 6 17
-11 23 -26 25 -68z m650 20 c3 -66 -28 -130 -53 -109 -23 19 -15 138 10 156
30 22 40 12 43 -47z m1527 31 c3 -6 -5 -10 -19 -10 -28 0 -82 -42 -91 -71 -4
-11 -9 -18 -12 -16 -7 7 22 59 52 96 22 25 30 29 45 21 11 -6 22 -15 25 -20z
m-3676 -28 c41 -64 39 -71 -5 -22 -24 26 -45 40 -61 40 -22 0 -24 2 -13 15 22
27 47 17 79 -33z m-24 -22 c11 -17 -5 -11 -28 11 l-22 21 22 -11 c12 -6 25
-16 28 -21z m1627 -10 c19 -37 24 -106 9 -129 -14 -22 -50 -3 -66 34 -14 34
-17 85 -8 118 8 30 46 17 65 -23z m448 14 c12 -30 13 -77 3 -71 -5 3 -9 -6 -9
-20 -2 -28 -30 -63 -51 -63 -34 0 -38 90 -6 153 18 35 50 36 63 1z m1578 -3
c-13 -15 -25 -27 -27 -25 -4 4 39 54 47 54 2 0 -7 -13 -20 -29z m-3713 9 c-3
-6 1 -13 9 -16 16 -6 12 -24 -5 -24 -6 0 -7 5 -3 11 4 7 -1 9 -12 7 -11 -2
-18 -10 -16 -16 1 -7 -1 -11 -5 -11 -21 3 -22 -3 -7 -28 l16 -28 -25 29 -25
28 32 29 c31 28 53 38 41 19z m3797 -20 l32 -30 -24 -22 c-13 -13 -18 -15 -10
-5 12 16 9 22 -20 52 -42 43 -24 47 22 5z m-1943 -4 c22 -26 5 -176 -20 -176
-4 0 -6 15 -4 33 l5 32 -10 -32 c-12 -39 -22 -41 -51 -10 -29 31 -39 60 -39
118 l0 49 54 0 c34 0 58 -5 65 -14z m165 6 c2 -4 1 -36 -3 -71 -6 -53 -13 -69
-36 -88 -29 -25 -40 -22 -48 12 -2 11 -3 8 -2 -7 2 -32 -10 -36 -25 -9 -11 22
-14 154 -3 164 9 10 111 9 117 -1z m1735 -21 c-15 -5 -22 6 -14 19 6 9 10 9
16 -1 5 -8 4 -15 -2 -18z m-3709 0 c0 -5 -7 -12 -16 -15 -14 -5 -15 -4 -4 9
14 17 20 19 20 6z m3693 -12 l22 -21 -22 11 c-12 6 -25 16 -28 21 -11 17 5 11
28 -11z m-3853 -4 c19 -22 8 -25 -12 -3 -10 10 -14 18 -9 18 5 0 14 -7 21 -15z
m3998 -5 c-7 -10 -14 -17 -17 -15 -4 4 18 35 25 35 2 0 -1 -9 -8 -20z m-4028
-45 c24 -24 41 -47 38 -50 -3 -3 -22 13 -42 36 -31 34 -39 38 -49 26 -19 -23
-85 -59 -102 -55 -10 2 6 19 42 45 32 24 60 43 63 43 3 0 26 -20 50 -45z m145
35 c-3 -5 -12 -10 -18 -10 -7 0 -6 4 3 10 19 12 23 12 15 0z m4004 -27 c25
-20 50 -39 54 -43 4 -4 0 -13 -9 -21 -12 -9 -15 -10 -10 -1 12 21 -6 13 -38
-15 l-31 -28 29 32 28 31 -29 16 c-16 8 -35 22 -43 31 -12 14 -18 12 -58 -27
l-46 -43 45 52 c24 29 48 52 53 53 5 0 30 -17 55 -37z m-3538 -15 c10 -20 10
-21 -2 -12 -19 16 -58 12 -69 -6 -6 -9 -10 -10 -10 -3 0 18 29 43 50 43 11 0
25 -10 31 -22z m2889 8 c6 -8 10 -25 7 -38 -4 -22 -4 -21 -6 3 -1 22 -6 26
-31 26 -16 0 -30 -5 -30 -10 0 -6 -2 -8 -5 -5 -3 3 -3 13 1 22 8 20 47 21 64
2z m-243 -2 c-3 -4 -2 -15 3 -25 7 -12 7 -20 0 -24 -5 -3 -10 1 -10 9 0 19
-21 21 -39 4 -11 -11 -13 -10 -9 2 3 8 15 21 29 27 27 14 36 16 26 7z m-2426
-14 c10 -6 19 -15 19 -21 0 -6 -8 -5 -22 2 -18 10 -24 8 -35 -7 -10 -14 -13
-14 -13 -3 0 13 18 39 28 39 2 0 12 -5 23 -10z m-16 -30 c3 -5 1 -10 -4 -10
-6 0 -11 5 -11 10 0 6 2 10 4 10 3 0 8 -4 11 -10z m2425 0 c0 -5 -5 -10 -11
-10 -5 0 -7 5 -4 10 3 6 8 10 11 10 2 0 4 -4 4 -10z m-3340 -25 c13 -14 21
-25 18 -25 -2 0 -15 11 -28 25 -13 14 -21 25 -18 25 2 0 15 -11 28 -25z m-77
-5 c14 -11 37 -42 51 -68 18 -32 20 -39 6 -22 -51 65 -61 71 -93 64 -16 -3
-40 -15 -51 -26 -12 -11 -120 -94 -241 -185 -121 -92 -242 -185 -270 -207 -27
-23 -111 -89 -185 -146 -228 -175 -463 -366 -505 -409 -23 -25 -48 -41 -62
-41 -13 0 -23 4 -23 8 0 14 83 89 211 189 69 54 278 217 465 363 403 316 645
498 660 499 6 1 23 -8 37 -19z m4608 -103 c188 -141 454 -347 748 -580 113
-89 237 -186 275 -216 113 -85 180 -156 132 -138 -8 3 -16 1 -18 -4 -2 -5 -30
15 -63 46 -57 54 -286 240 -505 410 -56 44 -137 107 -179 140 -101 80 -207
160 -373 283 -75 56 -140 108 -145 116 -4 8 -24 17 -44 21 -32 6 -39 4 -55
-20 -11 -14 -27 -36 -37 -48 -17 -21 -18 -21 -1 13 19 40 72 100 89 100 6 0
85 -55 176 -123z m-1840 50 c-10 -9 -11 -8 -5 6 3 10 9 15 12 12 3 -3 0 -11
-7 -18z m1659 20 c0 -2 -10 -12 -22 -23 l-23 -19 19 23 c18 21 26 27 26 19z
m-4505 -64 c-27 -25 -99 -83 -160 -129 -60 -46 -155 -120 -210 -164 -281 -225
-830 -632 -760 -563 19 19 726 568 928 721 111 84 209 159 217 167 8 8 19 15
25 15 5 -1 -12 -21 -40 -47z m4145 43 c0 -2 -8 -10 -17 -17 -16 -13 -17 -12
-4 4 13 16 21 21 21 13z m456 -58 c32 -26 109 -84 169 -129 61 -45 166 -126
235 -181 69 -54 252 -197 408 -318 156 -121 281 -220 277 -220 -12 0 -129 83
-295 209 -91 69 -187 141 -214 161 -26 19 -94 71 -150 115 -55 44 -119 93
-141 110 -22 16 -56 44 -75 61 -19 18 -70 57 -113 88 -43 31 -98 75 -123 98
-25 24 -50 45 -55 46 -5 2 -9 8 -9 13 0 13 12 5 86 -53z m-4161 32 c10 -11 16
-20 13 -20 -3 0 -13 9 -23 20 -10 11 -16 20 -13 20 3 0 13 -9 23 -20z m1335
-20 c6 -11 8 -20 6 -20 -3 0 -10 9 -16 20 -6 11 -8 20 -6 20 3 0 10 -9 16 -20z
m-1140 -83 c13 -5 13 -6 -1 -6 -8 -1 -26 11 -40 27 l-24 27 25 -21 c14 -12 32
-24 40 -27z m3327 18 c-29 -26 -52 -32 -61 -16 -4 5 2 7 12 4 10 -2 29 5 43
16 34 29 40 25 6 -4z m-82 5 c3 -6 -1 -7 -9 -4 -18 7 -21 14 -7 14 6 0 13 -4
16 -10z m505 6 c0 -2 -8 -10 -17 -17 -16 -13 -17 -12 -4 4 13 16 21 21 21 13z
m-3149 -46 l21 -35 -24 28 c-24 27 -52 35 -62 18 -14 -23 -118 -83 -128 -73
-6 6 7 19 39 37 26 16 59 37 72 47 34 26 58 19 82 -22z m2173 17 c17 -13 52
-35 77 -49 57 -34 77 -55 61 -69 -7 -5 -10 -6 -7 -3 4 6 -59 54 -72 54 -3 0
-28 16 -54 35 -55 39 -75 43 -83 18 -4 -10 -16 -29 -27 -43 l-20 -25 12 25
c22 46 50 80 66 80 9 0 30 -10 47 -23z m-2370 -85 c3 -5 -4 -16 -14 -25 -21
-18 -34 -1 -16 20 13 14 23 16 30 5z m244 -17 c-3 -3 -9 2 -12 12 -6 14 -5 15
5 6 7 -7 10 -15 7 -18z m1438 -2 c-8 -16 -45 -57 -82 -93 l-68 -65 62 68 c34
37 69 79 78 92 22 33 28 32 10 -2z m-840 -43 l38 -45 -38 35 c-21 19 -42 44
-48 55 -12 23 -5 17 48 -45z m-457 29 c28 -13 53 -18 70 -14 60 14 65 14 36 0
-42 -20 -78 -18 -119 6 -31 18 -43 29 -33 29 2 0 23 -9 46 -21z m406 -19 c21
-22 37 -40 34 -40 -3 0 -23 18 -44 40 -21 22 -37 40 -34 40 3 0 23 -18 44 -40z
m1345 36 c0 -10 -69 -46 -86 -46 -27 0 -97 20 -91 26 3 3 23 0 44 -6 35 -11
46 -10 84 8 53 24 49 23 49 18z m-449 -43 c-5 -10 -33 -40 -62 -68 l-53 -50
60 67 c64 72 70 77 55 51z m-2556 -63 c-3 -5 -16 -15 -28 -21 -19 -9 -19 -8 3
10 28 23 34 26 25 11z m1770 -10 c10 -11 16 -20 13 -20 -3 0 -13 9 -23 20 -10
11 -16 20 -13 20 3 0 13 -9 23 -20z m2470 0 c10 -11 16 -20 13 -20 -3 0 -13 9
-23 20 -10 11 -16 20 -13 20 3 0 13 -9 23 -20z m-2065 -36 c0 -2 -7 -4 -15 -4
-8 0 -15 4 -15 10 0 5 7 7 15 4 8 -4 15 -8 15 -10z m-103 0 c-3 -3 -12 -4 -19
-1 -8 3 -5 6 6 6 11 1 17 -2 13 -5z m349 -19 c-11 -8 -25 -15 -30 -15 -6 1 0
7 14 15 32 19 40 18 16 0z m-582 -6 c-4 -8 1 -9 17 -4 19 5 21 4 9 -4 -12 -9
-13 -11 -1 -11 8 0 12 -2 9 -5 -3 -3 -17 0 -32 6 -19 9 -23 15 -14 21 18 11
20 10 12 -3z m506 -9 c-8 -5 -19 -10 -25 -10 -5 0 -3 5 5 10 8 5 20 10 25 10
6 0 3 -5 -5 -10z m-283 -27 c-20 -2 -52 -2 -70 0 -17 2 0 4 38 4 39 0 53 -2
32 -4z m161 0 c-21 -2 -55 -2 -75 0 -21 2 -4 4 37 4 41 0 58 -2 38 -4z m-219
-19 c10 -9 -65 -3 -78 5 -10 6 1 8 30 4 24 -3 46 -7 48 -9z m98 0 c-3 -3 -12
-4 -19 -1 -8 3 -5 6 6 6 11 1 17 -2 13 -5z m161 -1 c-10 -2 -28 -2 -40 0 -13
2 -5 4 17 4 22 1 32 -1 23 -4z m1181 -80 c-1 -41 -2 -44 -8 -18 -7 28 -4 65 5
65 2 0 3 -21 3 -47z m-2668 -53 c-6 -58 -9 -65 -10 -30 -1 48 10 131 16 115 1
-6 -1 -44 -6 -85z m2697 -310 c-1 -66 -16 71 -22 190 l-5 115 14 -135 c7 -74
13 -151 13 -170z m1183 243 c13 -16 12 -17 -3 -4 -17 13 -22 21 -14 21 2 0 10
-8 17 -17z m-5091 3 c0 -2 -8 -10 -17 -17 -16 -13 -17 -12 -4 4 13 16 21 21
21 13z m187 -23 c-4 -3 -18 -13 -31 -22 -13 -9 -46 -31 -72 -50 -27 -19 -40
-25 -29 -14 21 22 123 93 133 93 3 0 2 -3 -1 -7z m4728 -11 c-3 -3 -11 0 -18
7 -9 10 -8 11 6 5 10 -3 15 -9 12 -12z m-3720 -120 c-4 -46 -9 -81 -11 -79 -3
3 -2 51 3 108 4 57 9 93 11 79 2 -13 1 -62 -3 -108z m3909 -4 c32 -22 56 -49
72 -80 13 -27 22 -48 19 -48 -2 0 -16 22 -29 49 -14 27 -31 51 -38 53 -20 8
-188 129 -195 142 -4 6 22 -10 57 -36 36 -26 87 -62 114 -80z m96 75 c0 -7
-39 17 -46 28 -3 6 5 3 20 -6 14 -10 26 -19 26 -22z m-5280 23 c0 -2 -8 -10
-17 -17 -16 -13 -17 -12 -4 4 13 16 21 21 21 13z m613 -240 c-25 -50 -47 -93
-50 -96 -4 -5 -16 8 -126 132 l-68 77 53 38 c113 83 93 82 170 6 l67 -66 -46
-91z m4244 126 l21 -17 -97 -104 -97 -104 -50 97 -49 97 68 65 68 65 57 -41
c31 -22 67 -48 79 -58z m-4776 18 c-18 -15 -42 -31 -53 -33 -25 -7 -21 -3 33
33 56 36 63 37 20 0z m-231 -14 c0 -2 -8 -10 -17 -17 -16 -13 -17 -12 -4 4 13
16 21 21 21 13z m5591 -33 c13 -16 12 -17 -3 -4 -10 7 -18 15 -18 17 0 8 8 3
21 -13z m-5446 -43 c-9 -16 -18 -30 -21 -30 -2 0 2 14 11 30 9 17 18 30 21 30
2 0 -2 -13 -11 -30z m819 -44 c313 -225 784 -443 1130 -525 406 -95 798 -105
1216 -30 402 72 875 279 1274 556 43 30 82 51 86 46 18 -18 380 -706 380 -721
0 -21 -375 -244 -595 -355 -377 -188 -831 -321 -1275 -372 -201 -23 -608 -20
-826 5 -345 40 -681 124 -1014 255 -209 82 -531 255 -785 420 -33 22 -62 40
-63 41 -2 2 21 49 51 106 30 57 108 204 172 328 116 220 161 300 170 300 2 0
38 -24 79 -54z m443 -143 c-2 -37 -3 -9 -3 62 0 72 1 102 3 68 2 -34 2 -93 0
-130z m2711 120 c-1 -62 -2 -64 -7 -23 -3 25 -4 55 -2 68 7 42 11 22 9 -45z
m-2675 -12 c-8 -48 -22 -75 -23 -41 0 47 13 102 21 89 4 -7 5 -28 2 -48z
m-1337 2 c-8 -15 -15 -25 -16 -21 0 12 23 58 27 54 3 -2 -2 -17 -11 -33z
m5344 -8 c0 -5 -5 -3 -10 5 -5 8 -10 20 -10 25 0 6 5 3 10 -5 5 -8 10 -19 10
-25z m-1303 -122 c-2 -27 -3 -5 -3 47 0 52 1 74 3 48 2 -27 2 -69 0 -95z
m-4958 89 c13 -25 -44 -95 -59 -72 -13 20 -13 20 10 58 22 36 35 40 49 14z
m7229 -55 c-5 -32 -21 -30 -47 8 -20 30 -22 37 -10 51 12 15 15 13 37 -11 13
-15 22 -37 20 -48z m-938 18 c0 -5 -5 -3 -10 5 -5 8 -10 20 -10 25 0 6 5 3 10
-5 5 -8 10 -19 10 -25z m-6249 -22 l24 -26 -27 19 c-15 10 -28 22 -28 27 0 12
5 8 31 -20z m7090 -6 c-13 -12 -20 -15 -15 -7 12 22 28 39 33 34 3 -3 -6 -15
-18 -27z m50 -9 c11 -21 11 -22 -4 -9 -10 7 -17 17 -17 22 0 15 9 10 21 -13z
m-7188 -3 c-3 -9 -8 -14 -10 -11 -3 3 -2 9 2 15 9 16 15 13 8 -4z m437 -19 c0
-2 -8 -10 -17 -17 -16 -13 -17 -12 -4 4 13 16 21 21 21 13z m6341 -23 c13 -16
12 -17 -3 -4 -17 13 -22 21 -14 21 2 0 10 -8 17 -17z m-6680 -10 c13 -16 12
-17 -3 -4 -10 7 -18 15 -18 17 0 8 8 3 21 -13z m299 3 c0 -2 -8 -10 -17 -17
-16 -13 -17 -12 -4 4 13 16 21 21 21 13z m5950 -41 c0 -5 -5 -3 -10 5 -5 8
-10 20 -10 25 0 6 5 3 10 -5 5 -8 10 -19 10 -25z m-5509 2 c-10 -9 -11 -8 -5
6 3 10 9 15 12 12 3 -3 0 -11 -7 -18z m-700 -64 c13 -16 12 -17 -3 -4 -10 7
-18 15 -18 17 0 8 8 3 21 -13z m673 -229 c3 -8 2 -12 -4 -9 -6 3 -10 10 -10
16 0 14 7 11 14 -7z"/>
<path d="M820 6809 c14 -11 42 -29 62 -39 21 -11 81 -64 134 -118 112 -112
112 -103 1 27 -46 54 -83 89 -89 85 -6 -4 -8 -3 -5 3 4 6 -3 19 -16 29 -18 16
-19 16 -8 2 20 -26 -2 -23 -49 7 -47 30 -65 33 -30 4z"/>
<path d="M6915 6994 l-40 -35 38 22 c36 20 53 37 46 44 -2 2 -22 -12 -44 -31z"/>
<path d="M6784 6889 c-19 -22 -19 -22 3 -10 24 12 39 31 25 31 -5 0 -17 -10
-28 -21z"/>
<path d="M6537 6643 c-4 -3 -7 -11 -7 -17 0 -6 5 -5 12 2 6 6 9 14 7 17 -3 3
-9 2 -12 -2z"/>
<path d="M830 6576 c0 -3 15 -15 33 -27 23 -17 28 -18 18 -6 -14 18 -51 42
-51 33z"/>
<path d="M5041 6165 c0 -5 6 -21 14 -35 8 -14 14 -20 14 -15 0 6 -6 21 -14 35
-8 14 -14 21 -14 15z"/>
<path d="M2426 6145 c-9 -26 -7 -32 5 -12 6 10 9 21 6 23 -2 3 -7 -2 -11 -11z"/>
<path d="M3686 6489 c-32 -25 -54 -67 -51 -94 3 -17 2 -18 -8 -4 -9 15 -13 13
-36 -14 -14 -17 -25 -35 -23 -40 1 -5 -1 -6 -6 -3 -5 3 -18 -1 -28 -9 -15 -11
-16 -15 -4 -15 23 -2 306 -2 378 -1 l64 1 -34 28 c-18 15 -41 38 -52 50 -15
19 -21 21 -28 10 -7 -10 -9 -10 -7 2 3 30 -2 40 -38 75 -43 41 -86 46 -127 14z
m108 -51 c13 -36 -14 -68 -52 -63 -15 2 -30 4 -34 4 -4 1 -12 10 -18 22 -9 16
-8 26 5 45 13 21 23 25 53 22 30 -2 38 -8 46 -30z m93 -64 c-3 -3 -12 -4 -19
-1 -8 3 -5 6 6 6 11 1 17 -2 13 -5z m-202 -34 c3 -5 1 -10 -4 -10 -6 0 -11 5
-11 10 0 6 2 10 4 10 3 0 8 -4 11 -10z m125 0 c0 -5 -5 -10 -11 -10 -5 0 -7 5
-4 10 3 6 8 10 11 10 2 0 4 -4 4 -10z m-42 -17 c-10 -2 -28 -2 -40 0 -13 2 -5
4 17 4 22 1 32 -1 23 -4z"/>
<path d="M3781 6434 c-1 -15 -69 -23 -75 -9 -2 5 -5 2 -5 -7 -2 -34 49 -45 75
-17 9 10 14 24 11 31 -3 8 -6 8 -6 2z"/>
<path d="M3513 6283 c-28 -2 -56 -10 -62 -16 -8 -10 -18 -616 -12 -714 1 -10
69 -13 306 -13 l306 0 -3 360 c-2 264 -6 362 -15 371 -12 12 -407 22 -520 12z
m340 -30 c-56 -2 -151 -2 -210 0 -59 1 -13 3 102 3 116 0 164 -2 108 -3z m122
-78 c0 -19 -7 -20 -232 -21 l-233 0 0 23 0 23 233 -2 c224 -3 232 -4 232 -23z
m1 -90 l2 -25 -234 0 -234 0 0 25 0 25 233 0 232 0 1 -25z m4 -100 l0 -25
-240 0 -240 0 0 25 0 25 240 0 240 0 0 -25z m6 -92 l4 -23 -245 0 c-231 0
-245 1 -245 18 0 10 3 22 7 26 4 3 112 5 241 4 l235 -3 3 -22z m0 -93 c0 -19
-7 -20 -243 -20 -236 0 -243 1 -243 20 0 19 7 20 243 20 236 0 243 -1 243 -20z
m4 -90 c0 -19 -7 -20 -249 -20 -244 0 -249 0 -244 20 5 19 14 20 249 20 237 0
244 -1 244 -20z m-26 -76 c9 -3 16 -15 16 -25 0 -18 -11 -19 -234 -19 -223 0
-234 1 -239 20 -3 10 0 21 7 24 17 7 432 7 450 0z"/>
<path d="M6555 6494 l-30 -26 33 22 c17 12 32 23 32 26 0 7 -4 5 -35 -22z"/>
<path d="M3500 5406 c0 -2 8 -10 18 -17 15 -13 16 -12 3 4 -13 16 -21 21 -21
13z"/>
<path d="M4708 5073 c7 -3 16 -2 19 1 4 3 -2 6 -13 5 -11 0 -14 -3 -6 -6z"/>
<path d="M3340 4920 c34 -27 63 -26 31 0 -13 11 -31 20 -40 20 -12 0 -10 -5 9
-20z"/>
<path d="M3235 4826 c30 -26 117 -76 132 -76 4 0 -16 14 -46 30 -30 17 -62 36
-70 44 -9 7 -23 16 -31 21 -8 4 -1 -5 15 -19z"/>
<path d="M4229 4821 c-13 -10 -46 -30 -74 -44 -27 -14 -44 -26 -36 -27 17 0
115 55 131 75 17 20 8 19 -21 -4z"/>
<path d="M3609 4793 c-24 -41 -52 -69 -84 -83 -18 -8 -18 -9 -2 -9 40 -2 109
52 100 77 -4 10 -2 13 5 8 8 -5 12 1 12 18 0 34 -4 33 -31 -11z"/>
<path d="M3852 4808 c1 -16 5 -28 9 -28 4 0 6 -8 5 -17 -1 -20 58 -63 88 -63
18 0 16 3 -11 20 -18 11 -46 41 -63 67 -26 43 -30 45 -28 21z"/>
<path d="M4769 4533 c-13 -16 -12 -17 4 -4 16 13 21 21 13 21 -2 0 -10 -8 -17
-17z"/>
<path d="M4822 4515 c-6 -14 -16 -25 -22 -25 -5 0 -10 -6 -10 -12 0 -7 -17
-29 -38 -48 -21 -19 -30 -29 -20 -21 11 8 18 10 18 3 0 -13 -87 -77 -117 -86
-11 -4 -27 -14 -34 -22 -11 -13 -9 -14 17 -8 106 25 192 110 218 217 8 34 3
35 -12 2z"/>
<path d="M2650 4519 c0 -9 13 -43 30 -76 34 -67 93 -117 166 -139 57 -17 57
-4 0 23 -47 23 -120 82 -111 91 3 3 13 -1 23 -9 10 -8 7 -4 -8 8 -42 38 -51
47 -76 82 -13 20 -24 28 -24 20z"/>
<path d="M3831 4463 c7 -12 15 -20 18 -17 3 2 -3 12 -13 22 -17 16 -18 16 -5
-5z"/>
<path d="M3636 4454 c-5 -14 -4 -15 9 -4 17 14 19 20 6 20 -5 0 -12 -7 -15
-16z"/>
<path d="M3677 4410 c-54 -47 -173 -315 -184 -416 -6 -51 16 -98 60 -124 42
-26 67 -25 108 3 29 19 36 33 51 92 9 39 17 85 17 103 1 29 21 49 21 20 0 -7
9 -54 21 -103 18 -82 24 -93 55 -114 40 -28 89 -23 130 13 36 30 45 115 19
184 -52 142 -90 233 -116 279 -55 96 -120 118 -182 63z"/>
<path d="M3585 4379 c-16 -28 -43 -70 -58 -94 -16 -25 -26 -49 -22 -55 3 -5 2
-10 -3 -10 -12 0 -46 -79 -63 -148 -10 -41 -11 -67 -2 -119 10 -58 17 -72 54
-107 l42 -41 -35 43 c-35 42 -59 128 -40 141 5 3 12 26 15 51 10 71 27 120 40
117 7 -1 11 7 10 21 -2 15 1 21 9 16 7 -4 8 -3 4 4 -4 6 11 46 32 89 34 67 61
143 50 143 -2 0 -16 -23 -33 -51z"/>
<path d="M3865 4415 c4 -11 11 -31 15 -45 4 -14 22 -54 40 -89 18 -36 33 -76
34 -90 1 -15 6 -25 13 -24 12 3 33 -57 48 -137 4 -19 11 -40 15 -45 16 -20
-10 -101 -44 -139 -19 -20 -30 -36 -26 -36 5 0 24 19 43 43 27 33 37 57 46
112 11 65 10 75 -13 143 -14 40 -35 87 -47 104 -13 17 -17 28 -10 24 11 -7 11
-4 1 15 -7 13 -16 26 -20 29 -4 3 -17 25 -30 49 -12 24 -26 49 -31 55 -5 6
-17 20 -25 31 l-16 20 7 -20z"/>
<path d="M4894 4338 c-4 -7 -14 -23 -22 -35 -8 -13 -12 -23 -9 -23 9 0 50 61
44 66 -3 3 -8 -1 -13 -8z"/>
<path d="M4840 4300 c-12 -16 -30 -30 -41 -30 -10 0 -19 -6 -19 -14 0 -21 -92
-53 -192 -65 -60 -7 -62 -8 -35 -19 45 -19 125 -15 174 9 39 19 112 90 134
132 15 27 2 20 -21 -13z"/>
<path d="M2637 4295 c38 -53 108 -115 143 -125 47 -13 122 -13 157 2 27 11 25
12 -37 19 -99 12 -195 42 -185 58 3 5 -5 13 -17 16 -13 4 -36 19 -52 34 l-29
26 20 -30z"/>
<path d="M2640 4246 c0 -2 8 -10 18 -17 15 -13 16 -12 3 4 -13 16 -21 21 -21
13z"/>
<path d="M3297 4149 c7 -7 15 -10 18 -7 3 3 -2 9 -12 12 -14 6 -15 5 -6 -5z"/>
<path d="M4164 4138 l-19 -23 23 19 c21 18 27 26 19 26 -2 0 -12 -10 -23 -22z"/>
<path d="M3166 4127 c37 -14 91 -59 124 -104 13 -18 26 -30 30 -28 4 3 17 -18
29 -45 12 -28 23 -50 25 -50 2 0 2 17 0 38 -2 20 -6 63 -9 94 -4 34 -14 67
-25 80 -18 21 -19 22 -15 3 2 -11 8 -32 14 -47 6 -16 9 -28 6 -28 -2 0 -24 21
-48 47 -42 44 -47 46 -103 49 -55 2 -57 1 -28 -9z m122 -56 c17 -23 32 -50 32
-59 0 -10 -8 -3 -17 16 -10 18 -31 46 -48 64 -16 17 -23 29 -15 26 8 -2 30
-24 48 -47z m71 -101 c0 -8 -6 0 -14 19 -8 18 -15 36 -15 40 1 13 29 -45 29
-59z"/>
<path d="M3270 4136 c0 -2 7 -9 15 -16 9 -7 15 -8 15 -2 0 5 -7 12 -15 16 -8
3 -15 4 -15 2z"/>
<path d="M4189 4123 c-13 -16 -12 -17 4 -4 16 13 21 21 13 21 -2 0 -10 -8 -17
-17z"/>
<path d="M4216 4111 c-39 -33 -60 -60 -61 -83 -1 -10 -4 -21 -8 -24 -7 -8 -2
54 7 84 9 26 -9 30 -23 5 -5 -10 -12 -58 -15 -108 l-6 -90 29 60 c16 33 30 56
30 52 1 -4 25 17 55 48 30 30 70 62 88 69 l33 14 -49 0 c-36 -1 -56 -7 -80
-27z m16 -18 c-15 -16 -35 -39 -44 -53 -9 -14 -17 -19 -17 -13 -1 14 67 93 79
93 5 0 -4 -12 -18 -27z"/>
<path d="M2657 4096 c-6 -15 4 -26 40 -45 15 -7 24 -8 28 -1 4 6 3 10 -2 9
-20 -3 -51 14 -47 26 3 7 1 16 -4 19 -6 3 -12 -1 -15 -8z"/>
<path d="M4809 4093 c-13 -16 -12 -17 4 -4 16 13 21 21 13 21 -2 0 -10 -8 -17
-17z"/>
<path d="M4776 4061 c-11 -4 -15 -10 -10 -13 5 -4 18 0 29 8 20 15 12 17 -19
5z"/>
<path d="M4310 3945 c-8 -9 -8 -15 -2 -15 12 0 26 19 19 26 -2 2 -10 -2 -17
-11z"/>
<path d="M3430 3884 c0 -21 49 -123 71 -145 11 -11 27 -36 35 -55 16 -37 29
-47 19 -13 -9 27 13 43 34 26 12 -10 14 -9 7 8 -5 13 -4 16 2 10 6 -5 12 -19
15 -30 3 -12 5 -5 6 16 1 31 -3 38 -24 43 -14 4 -25 11 -25 17 0 6 4 8 9 5 12
-8 83 29 106 55 16 19 13 18 -17 -5 -24 -18 -45 -26 -58 -23 -11 3 -18 1 -14
-4 7 -13 -33 -11 -59 2 -12 6 -41 32 -64 57 -23 26 -42 42 -43 36z m75 -114
c10 -11 13 -20 7 -20 -6 0 -16 9 -22 20 -6 11 -9 20 -7 20 2 0 12 -9 22 -20z
m45 -61 c0 -6 -4 -7 -10 -4 -5 3 -10 11 -10 16 0 6 5 7 10 4 6 -3 10 -11 10
-16z"/>
<path d="M3993 3833 c-43 -43 -59 -53 -85 -53 -26 0 -30 3 -18 11 12 8 10 9
-8 4 -15 -4 -35 1 -60 16 -32 20 -35 20 -20 3 9 -10 16 -22 15 -26 -1 -3 2
-10 7 -15 5 -5 6 -3 2 5 -9 15 -3 15 37 -1 18 -8 39 -12 47 -10 10 3 8 -1 -4
-11 -11 -9 -25 -16 -32 -16 -6 0 -11 -11 -11 -24 0 -21 3 -23 31 -19 17 2 36
11 42 19 6 8 16 14 23 14 6 0 11 6 11 13 0 8 10 22 23 33 l22 19 -19 -22 c-10
-12 -16 -28 -14 -35 4 -11 78 129 78 147 0 12 -18 -2 -67 -52z"/>
<path d="M3730 3878 c-6 -39 -7 -207 -2 -194 8 18 9 18 15 2 4 -10 7 -25 7
-34 0 -14 -2 -14 -9 -3 -6 9 -10 -6 -13 -45 -4 -75 1 -114 16 -114 8 0 13 21
13 63 1 34 2 109 3 167 2 107 -5 160 -21 160 -5 0 -9 -1 -9 -2z m20 -98 c0 -5
-5 -10 -11 -10 -5 0 -7 5 -4 10 3 6 8 10 11 10 2 0 4 -4 4 -10z"/>
<path d="M3640 3770 c-9 -6 -10 -10 -3 -10 6 0 15 5 18 10 8 12 4 12 -15 0z"/>
<path d="M3942 3695 c-7 -14 -12 -31 -12 -38 1 -7 7 3 16 22 17 39 13 54 -4
16z"/>
<path d="M4136 3695 c-9 -26 -7 -32 5 -12 6 10 9 21 6 23 -2 3 -7 -2 -11 -11z"/>
<path d="M4151 3664 c0 -11 3 -14 6 -6 3 7 2 16 -1 19 -3 4 -6 -2 -5 -13z"/>
<path d="M3582 3570 c0 -14 2 -19 5 -12 2 6 2 18 0 25 -3 6 -5 1 -5 -13z"/>
<path d="M3901 3544 c0 -11 3 -14 6 -6 3 7 2 16 -1 19 -3 4 -6 -2 -5 -13z"/>
<path d="M2810 4496 c0 -2 8 -10 18 -17 15 -13 16 -12 3 4 -13 16 -21 21 -21
13z"/>
<path d="M1856 3765 c4 -8 11 -15 16 -15 6 0 5 6 -2 15 -7 8 -14 15 -16 15 -2
0 -1 -7 2 -15z"/>
<path d="M897 4023 c-4 -3 -7 -22 -7 -40 0 -30 3 -34 23 -31 16 2 23 11 25 32
4 33 -22 58 -41 39z"/>
<path d="M1054 4006 c-8 -35 1 -56 26 -56 18 0 21 5 18 37 -4 46 -34 59 -44
19z"/>
<path d="M6394 4016 c-10 -26 0 -61 19 -64 21 -4 31 19 23 53 -7 27 -33 34
-42 11z"/>
<path d="M6550 4015 c-18 -21 -4 -65 20 -65 24 0 38 44 20 65 -7 8 -16 15 -20
15 -4 0 -13 -7 -20 -15z"/>
<path d="M3162 3944 c10 -10 20 -16 22 -13 3 3 -5 11 -17 18 -21 13 -21 12 -5
-5z"/>
<path d="M4210 3410 c0 -5 5 -10 11 -10 5 0 7 5 4 10 -3 6 -8 10 -11 10 -2 0
-4 -4 -4 -10z"/>
<path d="M3265 3410 c-3 -5 -1 -10 4 -10 6 0 11 5 11 10 0 6 -2 10 -4 10 -3 0
-8 -4 -11 -10z"/>
<path d="M3276 2970 c21 -38 39 -68 41 -66 7 6 -59 136 -69 136 -5 0 8 -31 28
-70z"/>
<path d="M4223 3028 c-15 -19 -54 -110 -49 -115 2 -2 18 23 35 58 30 58 36 85
14 57z"/>
<path d="M3215 2966 c10 -14 19 -26 22 -26 7 0 -17 39 -28 46 -6 3 -3 -5 6
-20z"/>
<path d="M3422 2905 c0 -16 2 -22 5 -12 2 9 2 23 0 30 -3 6 -5 -1 -5 -18z"/>
<path d="M3290 2889 c0 -5 -5 -7 -12 -3 -7 4 -8 3 -4 -5 4 -6 12 -9 17 -6 5 4
10 1 10 -4 1 -6 2 -17 3 -23 1 -7 7 -12 13 -11 7 2 14 -5 17 -15 9 -27 98
-117 129 -130 l29 -12 -22 30 c-11 16 -25 32 -31 35 -5 4 -7 11 -4 16 3 5 0 6
-7 4 -16 -6 -70 44 -106 98 -26 39 -32 44 -32 26z"/>
<path d="M4151 2848 c-34 -49 -88 -98 -113 -102 -18 -3 -55 -25 -42 -26 5 0
15 5 22 12 7 7 12 8 12 2 0 -19 -37 -47 -45 -34 -4 6 -13 9 -20 6 -8 -3 -16 0
-19 7 -2 7 -5 4 -5 -5 -1 -10 5 -18 13 -18 8 0 17 -6 19 -12 4 -10 6 -10 6 0
1 7 5 10 11 7 23 -14 130 75 159 133 7 12 15 20 20 18 11 -7 29 27 22 46 -5
12 -14 5 -40 -34z"/>
<path d="M3170 2881 c0 -5 5 -13 10 -16 6 -3 10 -2 10 4 0 5 -4 13 -10 16 -5
3 -10 2 -10 -4z"/>
<path d="M3926 2836 c-3 -13 -9 -32 -12 -43 -5 -12 -4 -15 3 -8 11 10 28 75
20 75 -3 0 -8 -11 -11 -24z"/>
<path d="M4259 2843 c-13 -16 -12 -17 4 -4 9 7 17 15 17 17 0 8 -8 3 -21 -13z"/>
<path d="M3630 2820 c0 -6 4 -9 9 -5 5 3 12 -2 14 -10 4 -12 5 -12 3 1 -1 19
-26 32 -26 14z"/>
<path d="M3825 2809 c-10 -29 -3 -31 18 -3 15 20 15 24 3 24 -8 0 -18 -9 -21
-21z"/>
<path d="M3730 2763 c0 -29 -4 -53 -8 -53 -17 0 -8 -29 10 -33 10 -3 18 -1 18
5 0 5 5 6 10 3 6 -3 10 1 10 10 0 9 -4 14 -8 11 -5 -3 -6 21 -4 53 3 48 1 58
-12 58 -13 0 -16 -11 -16 -54z"/>
<path d="M3631 2773 c20 -54 34 -83 40 -83 4 0 -2 25 -14 55 -11 30 -24 55
-28 55 -5 0 -4 -12 2 -27z"/>
<path d="M3844 2784 c-4 -10 -13 -34 -20 -53 -16 -39 -17 -41 -6 -41 9 0 44
102 37 108 -3 3 -8 -4 -11 -14z"/>
<path d="M3667 2749 c4 -13 8 -18 11 -10 2 7 -1 18 -6 23 -8 8 -9 4 -5 -13z"/>
<path d="M3517 2709 c-9 -6 -17 -18 -16 -27 0 -10 3 -12 6 -4 2 6 13 12 24 12
10 0 19 4 19 9 0 16 -14 20 -33 10z"/>
<path d="M3886 2693 c-6 -14 -5 -15 5 -6 7 7 10 15 7 18 -3 3 -9 -2 -12 -12z"/>
<path d="M3388 2641 c29 -28 59 -51 65 -51 12 1 2 9 -78 71 -31 24 -28 19 13
-20z"/>
<path d="M4090 2644 c-25 -19 -70 -48 -100 -64 -30 -16 -51 -29 -47 -30 18 -1
125 61 162 94 51 45 43 45 -15 0z"/>
<path d="M3490 2575 c0 -8 73 -36 78 -30 3 3 3 5 0 5 -3 0 -22 7 -42 15 -20 8
-36 13 -36 10z"/>
<path d="M3450 2566 c0 -2 9 -6 20 -9 11 -3 18 -1 14 4 -5 9 -34 13 -34 5z"/>
<path d="M3994 2554 c-18 -14 -18 -14 6 -3 31 14 36 19 24 19 -6 0 -19 -7 -30
-16z"/>
<path d="M3506 2539 c6 -10 72 -31 83 -27 5 2 -12 10 -39 19 -27 8 -47 12 -44
8z"/>
<path d="M3920 2525 c-23 -9 -28 -14 -15 -14 11 0 31 6 45 14 31 18 16 18 -30
0z"/>
<path d="M3510 2966 c0 -2 8 -10 18 -17 15 -13 16 -12 3 4 -13 16 -21 21 -21
13z"/>
<path d="M3960 2965 c-7 -9 -8 -15 -2 -15 5 0 12 7 16 15 3 8 4 15 2 15 -2 0
-9 -7 -16 -15z"/>
<path d="M1827 1778 c-24 -46 -88 -166 -142 -268 -54 -102 -104 -194 -112
-205 -33 -49 -17 -64 228 -210 477 -285 983 -456 1544 -522 175 -21 646 -23
780 -4 512 73 850 168 1222 346 220 105 567 309 579 340 5 12 -103 224 -181
355 -18 30 -53 96 -79 147 -25 50 -49 94 -54 97 -5 3 -42 -19 -83 -48 -262
-185 -622 -364 -894 -444 -124 -37 -377 -90 -510 -108 -196 -26 -593 -24 -781
4 -315 48 -557 118 -851 250 -158 71 -464 242 -568 317 -16 12 -35 25 -42 29
-7 4 -28 -24 -56 -76z m259 -185 c102 -50 125 -93 89 -163 l-15 -28 -39 15
c-37 14 -39 17 -34 49 5 31 3 35 -28 48 -18 8 -38 12 -44 10 -15 -6 -115 -183
-122 -215 -4 -22 1 -30 32 -49 40 -25 39 -26 70 24 9 14 13 14 43 -5 40 -26
41 -49 3 -91 -35 -39 -72 -41 -149 -8 -66 29 -102 70 -102 117 0 53 126 288
167 312 30 17 72 12 129 -16z m3413 3 c15 -8 39 -32 53 -53 45 -68 127 -217
133 -245 13 -52 -51 -123 -137 -154 -22 -8 -44 -14 -49 -14 -13 0 -79 61 -79
74 0 6 14 19 32 29 28 16 33 16 46 3 13 -13 19 -12 48 2 44 21 50 44 24 87
-22 36 -34 43 -45 25 -11 -18 -83 -50 -113 -50 -40 0 -78 32 -107 91 -48 94
-26 137 100 203 37 20 58 20 94 2z m-3055 -180 c65 -30 75 -38 86 -71 17 -50
10 -77 -59 -219 -51 -106 -64 -125 -94 -140 -48 -22 -62 -21 -133 13 -69 33
-104 70 -104 113 0 41 123 291 156 317 37 29 63 26 148 -13z m2734 -3 c20 -18
25 -27 106 -190 56 -111 60 -156 19 -195 -41 -37 -102 -62 -151 -63 -36 0 -48
5 -68 28 -35 40 -31 61 13 75 30 9 38 9 48 -4 7 -11 19 -13 37 -9 44 11 53 29
39 75 -6 22 -13 40 -15 40 -2 0 -29 -11 -60 -25 -96 -43 -126 -35 -165 44 -46
91 -52 124 -30 161 39 63 181 103 227 63z m-2432 -123 c24 -9 24 -12 24 -140
0 -71 4 -130 9 -130 5 0 41 48 81 108 40 59 76 107 79 107 27 -2 92 -18 96
-25 2 -4 -4 -41 -14 -81 -11 -41 -32 -138 -47 -217 l-29 -143 -35 6 c-19 4
-40 10 -46 13 -10 6 1 70 42 242 3 14 -30 -24 -73 -85 -64 -90 -83 -110 -103
-110 -21 0 -25 5 -27 30 -1 17 -5 80 -9 140 l-7 110 -40 -120 c-22 -66 -41
-122 -43 -123 -4 -5 -77 19 -87 28 -5 4 -2 21 6 36 11 23 68 190 123 363 4 14
50 10 100 -9z m1930 -64 c23 -17 40 -57 79 -195 43 -148 24 -204 -78 -232 -69
-19 -122 -17 -154 7 -29 22 -56 100 -88 259 -13 63 -12 73 3 105 13 26 29 39
62 52 56 21 148 23 176 4z m-1329 -72 c18 -5 23 -17 33 -77 6 -40 22 -139 36
-221 14 -82 23 -150 22 -152 -2 -2 -26 0 -53 4 l-50 7 -3 46 -3 46 -46 7 c-78
10 -80 9 -99 -39 l-17 -46 -46 7 c-25 3 -49 9 -53 13 -3 3 36 92 87 196 52
105 94 196 95 203 0 13 57 16 97 6z m923 -9 c16 -8 34 -23 39 -33 17 -32 44
-187 45 -260 1 -69 -1 -75 -27 -98 -33 -29 -77 -40 -184 -49 l-81 -7 -7 69
c-3 37 -13 121 -21 185 -8 64 -14 132 -14 152 0 38 -5 35 90 49 61 10 133 6
160 -8z m-530 -127 c34 -68 64 -125 67 -128 3 -3 3 51 2 120 l-4 125 43 3 c28
2 44 -1 46 -10 3 -7 7 -109 11 -226 l6 -213 -53 3 -53 3 -67 135 -68 135 2
-140 1 -140 -51 -3 -52 -4 0 231 0 231 54 0 54 0 62 -122z"/>
<path d="M5402 1494 c-26 -18 -27 -34 -6 -75 13 -26 19 -30 42 -24 15 3 36 15
46 25 19 19 19 21 3 55 -19 39 -47 46 -85 19z"/>
<path d="M2357 1354 c-3 -3 -31 -57 -62 -119 -60 -121 -63 -144 -19 -163 47
-22 53 -16 109 104 59 123 62 136 42 152 -18 15 -64 32 -70 26z"/>
<path d="M5070 1333 c-19 -8 -36 -16 -38 -17 -1 -2 6 -24 15 -49 19 -51 37
-58 88 -35 30 14 30 14 5 72 -23 51 -21 50 -70 29z"/>
<path d="M4535 1136 c-18 -13 -18 -15 0 -87 9 -40 24 -95 32 -122 l14 -48 41
3 c58 4 65 20 44 109 -10 41 -26 93 -36 117 -16 35 -23 42 -48 42 -15 0 -37
-6 -47 -14z"/>
<path d="M3266 974 c-14 -31 -26 -60 -26 -64 0 -4 16 -10 36 -12 l35 -4 -7 65
c-3 36 -8 67 -9 69 -2 2 -15 -22 -29 -54z"/>
<path d="M4127 1073 c-5 -9 19 -239 27 -259 6 -15 72 -8 95 9 22 18 -6 213
-36 242 -15 15 -79 21 -86 8z"/>
<path d="M340 6670 c-6 -10 -26 -86 -45 -167 -72 -304 -78 -319 -177 -444 -86
-110 -88 -114 -88 -166 0 -38 4 -55 15 -59 8 -3 52 13 99 35 47 23 88 41 92
41 3 0 3 -37 -1 -82 -7 -76 -10 -84 -41 -113 -37 -35 -40 -59 -26 -169 7 -49
7 -50 44 -51 20 0 39 -3 41 -5 4 -4 62 -314 83 -437 5 -35 32 -45 51 -20 9 10
34 141 75 384 12 71 12 72 47 80 46 11 61 40 61 118 0 58 -2 63 -40 100 l-41
40 3 75 c3 73 4 75 28 72 13 -1 52 -16 86 -32 33 -17 66 -30 72 -30 15 0 28
28 30 66 2 34 -3 42 -118 179 -45 53 -81 107 -88 130 -18 59 -76 306 -97 413
-7 32 -28 62 -45 62 -5 0 -14 -9 -20 -20z m61 -370 c12 -96 28 -182 35 -190 7
-9 11 -25 8 -36 -4 -16 6 -28 50 -57 65 -43 73 -38 16 10 -22 19 -40 40 -40
46 0 6 31 -20 70 -58 38 -38 68 -70 66 -72 -4 -4 -116 58 -156 87 -15 11 -30
17 -34 13 -3 -3 -6 -47 -6 -97 0 -50 -5 -98 -10 -106 -8 -13 -10 -12 -10 3 0
9 -4 17 -10 17 -5 0 -10 7 -10 15 0 8 -4 15 -10 15 -5 0 -10 -18 -10 -39 0
-34 3 -38 20 -34 11 3 20 0 20 -6 0 -6 -13 -11 -29 -11 -16 0 -37 -3 -46 -6
-14 -6 -16 7 -13 120 2 69 1 126 -1 126 -4 0 -96 -51 -150 -83 -44 -26 -38
-16 55 94 l73 87 30 123 c38 157 65 248 67 229 1 -8 12 -94 25 -190z m53 -637
c41 -22 52 -34 54 -57 2 -15 0 -27 -5 -25 -86 38 -156 60 -162 52 -10 -15 -98
-46 -110 -38 -17 10 -13 40 7 58 60 54 126 57 216 10z m-80 -130 c4 -27 6 -66
6 -88 -1 -53 6 -42 19 29 10 52 9 62 -7 79 -16 19 -16 20 6 8 28 -15 28 -27
-3 -180 -14 -68 -25 -136 -26 -150 -1 -27 -45 188 -55 270 -6 41 -3 48 17 63
13 9 26 16 30 16 3 0 9 -21 13 -47z"/>
<path d="M380 6227 c0 -20 5 -39 11 -42 7 -5 8 5 3 32 -9 51 -14 54 -14 10z"/>
<path d="M386 6082 c-3 -5 -5 -51 -4 -103 1 -104 15 -77 19 38 2 61 -3 84 -15
65z"/>
<path d="M361 5914 c0 -11 3 -14 6 -6 3 7 2 16 -1 19 -3 4 -6 -2 -5 -13z"/>
<path d="M361 5484 c0 -11 3 -14 6 -6 3 7 2 16 -1 19 -3 4 -6 -2 -5 -13z"/>
<path d="M7127 6663 c-8 -39 3 -83 19 -83 10 0 14 15 14 55 0 40 -4 55 -14 55
-7 0 -16 -12 -19 -27z"/>
<path d="M7019 6387 c-36 -13 -86 -38 -110 -54 -58 -41 -142 -130 -167 -179
-143 -281 27 -631 332 -683 230 -40 447 111 510 354 56 214 -53 444 -257 545
-56 27 -80 33 -154 37 -75 3 -98 0 -154 -20z m110 -141 c1 -58 -2 -107 -6
-109 -10 -6 -115 13 -126 23 -17 15 89 190 115 190 14 0 16 -14 17 -104z m83
77 c42 -45 102 -162 86 -168 -42 -14 -128 -32 -132 -27 -3 3 -6 54 -6 114 0
119 6 129 52 81z m143 -34 c22 -15 50 -38 63 -51 l22 -25 -50 -27 c-46 -25
-51 -26 -56 -9 -19 57 -30 81 -51 110 -12 17 -23 36 -23 42 0 14 41 -4 95 -40z
m-360 -21 c-20 -35 -39 -71 -42 -80 -3 -10 -10 -18 -17 -18 -13 0 -76 37 -76
45 0 16 136 115 158 115 8 0 0 -23 -23 -62z m-105 -119 c19 -8 36 -14 37 -14
1 -1 -6 -41 -16 -90 l-18 -90 -77 -3 c-61 -2 -76 0 -76 12 0 26 39 141 60 175
22 35 23 35 90 10z m607 -25 c25 -46 53 -143 46 -161 -4 -9 -29 -13 -77 -13
l-72 0 -11 68 c-6 37 -15 76 -18 88 -5 17 0 22 35 34 22 7 43 17 46 22 10 16
29 2 51 -38z m-437 -18 l65 -12 3 -72 c3 -64 1 -72 -15 -72 -10 -1 -54 -3 -97
-6 l-79 -6 6 56 c7 65 27 126 42 125 5 0 39 -6 75 -13z m269 -34 c5 -20 11
-57 13 -82 3 -41 1 -45 -19 -44 -13 0 -54 1 -93 2 l-70 2 0 65 c0 52 3 67 17
72 28 11 128 30 135 26 4 -2 12 -21 17 -41z m-427 -222 c4 -30 11 -68 17 -83
6 -16 11 -32 11 -37 0 -14 -80 -52 -96 -46 -17 7 -57 86 -78 155 -9 30 -16 56
-16 57 0 6 50 12 100 10 l55 -1 7 -55z m223 -15 l0 -69 -73 -17 c-84 -19 -82
-21 -102 73 -19 86 -16 89 87 86 l88 -3 0 -70z m217 34 c-5 -55 -27 -134 -38
-134 -5 0 -39 7 -76 15 l-68 14 0 66 c0 37 3 70 7 74 4 4 46 5 93 4 l85 -3 -3
-36z m161 35 c29 -5 37 -11 37 -28 0 -28 -46 -145 -69 -176 l-19 -24 -51 24
c-39 18 -50 28 -45 39 17 40 34 107 34 131 0 15 3 30 7 33 8 9 56 9 106 1z
m-379 -277 c-1 -48 -4 -91 -8 -94 -14 -14 -56 23 -90 80 -20 34 -36 67 -36 74
0 13 70 32 110 30 25 -2 25 -3 24 -90z m127 81 c22 -6 39 -16 39 -22 0 -20
-41 -90 -73 -123 -50 -53 -57 -46 -57 62 l0 95 26 0 c15 0 44 -5 65 -12z
m-280 -70 c12 -24 30 -55 41 -70 30 -43 -16 -31 -99 25 -51 34 -54 52 -10 71
45 20 44 21 68 -26z m422 20 c15 -5 27 -14 27 -18 0 -19 -83 -76 -145 -100
l-26 -10 26 43 c15 23 33 57 41 75 11 26 19 32 32 27 9 -4 29 -12 45 -17z"/>
<path d="M7136 5318 c-2 -7 -9 -28 -15 -46 -17 -53 18 -94 49 -57 10 12 10 24
0 60 -13 48 -27 65 -34 43z"/>
</g>
</svg>
