<?xml version="1.0" standalone="no"?>
<!DOCTYPE svg PUBLIC "-//W3C//DTD SVG 20010904//EN"
 "http://www.w3.org/TR/2001/REC-SVG-20010904/DTD/svg10.dtd">
<svg version="1.0" xmlns="http://www.w3.org/2000/svg"
 width="1536.000000pt" height="1024.000000pt" viewBox="0 0 1536.000000 1024.000000"
 preserveAspectRatio="xMidYMid meet">

<g transform="translate(0.000000,1024.000000) scale(0.100000,-0.100000)"
fill="#ffffff" stroke="none">
<path d="M4565 8498 c-2 -7 -6 -40 -9 -73 -3 -33 -10 -76 -16 -96 l-10 -36
-93 -5 c-111 -6 -151 -22 -220 -86 -28 -27 -67 -57 -85 -66 -50 -26 -131 -19
-241 20 -132 48 -211 45 -269 -9 -74 -69 -75 -153 -3 -331 28 -70 57 -158 63
-195 11 -65 10 -67 -20 -128 -18 -34 -46 -113 -63 -175 -84 -311 -174 -489
-292 -577 -29 -21 -103 -65 -166 -97 -181 -94 -233 -153 -197 -222 24 -46 73
-70 202 -97 160 -33 213 -49 319 -101 262 -127 396 -351 396 -663 0 -238 -34
-353 -446 -1486 -374 -1030 -401 -1142 -392 -1610 5 -275 16 -351 54 -387 23
-21 36 -23 181 -30 86 -3 248 -7 358 -7 l202 -1 6 -31 c7 -39 3 -46 -39 -63
-18 -8 -41 -26 -50 -40 -23 -34 -12 -101 22 -132 27 -25 66 -29 353 -39 91 -3
442 -17 780 -30 338 -13 717 -27 843 -31 267 -8 262 -11 175 97 -47 59 -61 84
-113 208 -23 53 -48 70 -114 78 -79 9 -41 23 64 23 144 0 166 21 194 185 36
205 140 685 316 1460 93 411 129 543 165 616 46 90 155 196 251 243 163 79
276 88 694 56 601 -46 1092 -11 1485 107 99 29 200 73 216 94 7 8 14 83 17
184 9 257 55 485 131 651 135 291 387 492 727 580 223 57 204 56 1039 61 883
5 806 -4 818 94 l7 54 263 5 c262 5 264 5 283 29 18 22 19 43 19 333 0 295 1
311 20 335 17 22 20 41 20 142 0 113 1 118 35 185 31 62 35 79 35 147 0 42 6
95 14 117 23 63 28 141 16 217 -13 81 -46 143 -95 181 -25 19 -35 34 -35 53 0
53 -32 135 -64 167 -45 45 -93 55 -257 52 l-141 -3 -54 -120 c-29 -66 -57
-127 -62 -136 -10 -15 -132 -16 -1357 -18 -958 -2 -1350 1 -1360 9 -9 7 -279
10 -915 10 -496 0 -944 3 -996 6 l-94 7 -11 39 c-5 21 -15 41 -22 43 -7 2
-491 6 -1077 10 -586 4 -1067 8 -1069 11 -2 2 -21 47 -42 99 -20 53 -43 102
-49 110 -17 20 -238 22 -245 3z m-750 -443 c49 -48 20 -135 -44 -135 -46 0
-81 35 -81 81 0 74 74 106 125 54z m3501 -1872 c9 -51 36 -102 71 -134 36 -34
105 -69 136 -69 24 0 24 -1 30 -127 13 -315 159 -563 419 -718 106 -63 190
-87 318 -93 132 -5 181 8 202 54 11 23 10 28 -7 40 -10 8 -30 14 -44 14 -43 0
-176 28 -229 48 -73 28 -185 105 -234 162 -111 127 -159 249 -166 426 -5 137
2 181 56 322 l35 92 154 0 c200 0 327 -15 438 -51 101 -33 162 -71 244 -152
135 -133 202 -331 187 -554 -9 -154 -63 -288 -155 -387 -172 -183 -437 -272
-846 -283 -357 -10 -609 36 -861 156 -238 114 -390 263 -466 459 -96 247 -35
487 160 634 125 94 310 161 544 197 4 1 10 -16 14 -36z"/>
</g>
</svg>
